SplineFontDB: 3.2
FontName: ViewIcon
FullName: ViewIcon
FamilyName: ViewIcon
Weight: Book
Copyright: https://github.com/google/material-design-icons/\n
Version: 1.000
ItalicAngle: 0
UnderlinePosition: -125
UnderlineWidth: 50
Ascent: 750
Descent: 250
InvalidEm: 0
sfntRevision: 0x00010000
LayerCount: 2
Layer: 0 1 "Back" 1
Layer: 1 1 "Fore" 0
XUID: [1021 929 1697964643 20387]
StyleMap: 0x0040
FSType: 4
OS2Version: 4
OS2_WeightWidthSlopeOnly: 0
OS2_UseTypoMetrics: 1
CreationTime: 1682539909
ModificationTime: 1685016924
PfmFamily: 81
TTFWeight: 400
TTFWidth: 5
LineGap: 100
VLineGap: 0
Panose: 0 0 0 0 0 0 0 0 0 0
OS2TypoAscent: 750
OS2TypoAOffset: 0
OS2TypoDescent: -250
OS2TypoDOffset: 0
OS2TypoLinegap: 100
OS2WinAscent: 750
OS2WinAOffset: 0
OS2WinDescent: 250
OS2WinDOffset: 0
HheadAscent: 750
HheadAOffset: 0
HheadDescent: -250
HheadDOffset: 0
OS2SubXSize: 650
OS2SubYSize: 600
OS2SubXOff: 0
OS2SubYOff: 75
OS2SupXSize: 650
OS2SupYSize: 600
OS2SupXOff: 0
OS2SupYOff: 350
OS2StrikeYSize: 50
OS2StrikeYPos: 300
OS2CapHeight: 700
OS2XHeight: 500
OS2Vendor: '    '
OS2CodePages: 20000001.00000000
OS2UnicodeRanges: 800000af.4000004a.00000000.00000000
MarkAttachClasses: 1
DEI: 91125
TtTable: prep
PUSHW_1
 0
CALL
SVTCA[y-axis]
PUSHW_3
 1
 2
 2
CALL
SVTCA[x-axis]
PUSHW_3
 3
 3
 2
CALL
SVTCA[x-axis]
PUSHW_8
 3
 55
 45
 35
 25
 17
 0
 8
CALL
PUSHW_8
 4
 149
 122
 95
 68
 41
 0
 8
CALL
PUSHW_8
 5
 77
 63
 49
 35
 17
 0
 8
CALL
SVTCA[y-axis]
PUSHW_8
 1
 55
 45
 35
 25
 17
 0
 8
CALL
PUSHW_8
 2
 149
 122
 95
 68
 41
 0
 8
CALL
SVTCA[y-axis]
PUSHW_3
 6
 4
 7
CALL
PUSHW_1
 0
DUP
RCVT
RDTG
ROUND[Black]
RTG
WCVTP
EndTTInstrs
TtTable: fpgm
PUSHW_1
 0
FDEF
MPPEM
PUSHW_1
 9
LT
IF
PUSHB_2
 1
 1
INSTCTRL
EIF
PUSHW_1
 511
SCANCTRL
PUSHW_1
 68
SCVTCI
PUSHW_2
 9
 3
SDS
SDB
ENDF
PUSHW_1
 1
FDEF
DUP
DUP
RCVT
ROUND[Black]
WCVTP
PUSHB_1
 1
ADD
ENDF
PUSHW_1
 2
FDEF
PUSHW_1
 1
LOOPCALL
POP
ENDF
PUSHW_1
 3
FDEF
DUP
GC[cur]
PUSHB_1
 3
CINDEX
GC[cur]
GT
IF
SWAP
EIF
DUP
ROLL
DUP
ROLL
MD[grid]
ABS
ROLL
DUP

StartChar: space
Encoding: 32 32 3
AltUni2: 000063.ffffffff.0 000041.ffffffff.0
Width: 1000
GlyphClass: 2
LayerCount: 2
Fore
SplineSet
875 196 m 1,0,-1
 553 196 l 1,1,-1
 553 -125 l 1,2,-1
 431 -125 l 1,3,-1
 431 196 l 1,4,-1
 125 196 l 1,5,-1
 125 303 l 1,6,-1
 431 303 l 1,7,-1
 431 625 l 1,8,-1
 553 625 l 1,9,-1
 553 303 l 1,10,-1
 875 303 l 1,11,-1
 875 196 l 1,0,-1
EndSplineSet
Validated: 1
EndChar

StartChar: exclam
Encoding: 33 33 4
Width: 1000
GlyphClass: 2
Flags: W
LayerCount: 2
Fore
SplineSet
853 455 m 2,0,-1
 784 386 l 1,1,-1
 642 528 l 1,2,-1
 711 596 l 2,3,4
 723 608 723 608 736 608 c 0,5,6
 737 608 737 608 744.5 607.5 c 128,-1,7
 752 607 752 607 764 596 c 2,8,-1
 853 508 l 2,9,10
 864 497 864 497 864.5 489 c 128,-1,11
 865 481 865 481 865 481 c 2,12,13
 865 467 865 467 853 455 c 2,0,-1
185 70 m 1,14,-1
 602 487 l 1,15,-1
 743 346 l 1,16,-1
 327 -72 l 1,17,-1
 185 -72 l 1,18,-1
 185 70 l 1,14,-1
EndSplineSet
Validated: 1
EndChar

StartChar: quotedbl
Encoding: 34 34 5
Width: 862
GlyphClass: 2
Flags: W
LayerCount: 2
Fore
SplineSet
198 431 m 1,0,-1
 665 431 l 1,1,-1
 665 -35 l 2,2,3
 665 -67 665 -67 642 -90 c 128,-1,4
 619 -113 619 -113 587 -113 c 2,5,-1
 276 -113 l 2,6,7
 244 -113 244 -113 221 -90 c 128,-1,8
 198 -67 198 -67 198 -35 c 2,9,-1
 198 431 l 1,0,-1
703 470 m 1,10,-1
 159 470 l 1,11,-1
 159 548 l 1,12,-1
 295 548 l 1,13,-1
 334 587 l 1,14,-1
 528 587 l 1,15,-1
 567 548 l 1,16,-1
 703 548 l 1,17,-1
 703 470 l 1,10,-1
EndSplineSet
Validated: 1
EndChar

StartChar: numbersign
Encoding: 35 35 6
Width: 1000
GlyphClass: 2
Flags: W
LayerCount: 2
Fore
SplineSet
781 556 m 2,0,-1
 806 529 l 2,1,2
 823 511 823 511 823 487 c 128,-1,3
 823 463 823 463 805 448 c 2,4,-1
 544 238 l 1,5,-1
 608 169 l 2,6,7
 626 151 626 151 626 125 c 2,8,9
 626 125 626 125 625.5 111.5 c 128,-1,10
 625 98 625 98 606 80 c 2,11,-1
 581 56 l 1,12,-1
 298 351 l 1,13,-1
 323 375 l 2,14,15
 341 393 341 393 366 393 c 0,16,17
 367 393 367 393 380 392.5 c 128,-1,18
 393 392 393 392 412 373 c 2,19,-1
 468 317 l 1,20,-1
 700 558 l 2,21,22
 716 574 716 574 739 574 c 0,23,24
 740 574 740 574 752 573.5 c 128,-1,25
 764 573 764 573 781 556 c 2,0,-1
281 332 m 1,26,-1
 561 40 l 2,27,28
 559 38 559 38 531 -6 c 128,-1,29
 503 -50 503 -50 473.5 -75.5 c 128,-1,30
 444 -101 444 -101 401 -113 c 1,31,32
 391 -103 391 -103 348.5 -64.5 c 128,-1,33
 306 -26 306 -26 291.5 -12 c 128,-1,34
 277 2 277 2 242.5 36 c 128,-1,35
 208 70 208 70 189 91.5 c 128,-1,36
 170 113 170 113 144.5 144 c 128,-1,37
 119 175 119 175 99 204 c 1,38,39
 115 213 115 213 146 227 c 128,-1,40
 177 241 177 241 196 251 c 128,-1,41
 215 261 215 261 239.5 282.5 c 128,-1,42
 264 304 264 304 281 332 c 1,26,-1
EndSplineSet
Validated: 1
EndChar

StartChar: dollar
Encoding: 36 36 7
Width: 1000
GlyphClass: 2
Flags: W
LayerCount: 2
Fore
SplineSet
900 201 m 1,0,-1
 291 201 l 1,1,-1
 571 -80 l 1,2,-1
 500 -150 l 1,3,-1
 100 250 l 1,4,-1
 500 650 l 1,5,-1
 570 580 l 1,6,-1
 291 300 l 1,7,-1
 900 300 l 1,8,-1
 900 201 l 1,0,-1
EndSplineSet
Validated: 1
EndChar

StartChar: percent
Encoding: 37 37 8
Width: 1000
GlyphClass: 2
Flags: W
LayerCount: 2
Fore
SplineSet
900 250 m 1,0,-1
 830 180 l 1,1,-1
 550 459 l 1,2,-1
 550 -150 l 1,3,-1
 450 -150 l 1,4,-1
 450 459 l 1,5,-1
 171 179 l 1,6,-1
 100 250 l 1,7,-1
 500 650 l 1,8,-1
 900 250 l 1,0,-1
EndSplineSet
Validated: 1
EndChar

StartChar: ampersand
Encoding: 38 38 9
Width: 1000
GlyphClass: 2
Flags: W
LayerCount: 2
Fore
SplineSet
500 -150 m 1,0,-1
 430 -80 l 1,1,-1
 709 200 l 1,2,-1
 100 200 l 1,3,-1
 100 300 l 1,4,-1
 709 300 l 1,5,-1
 430 580 l 1,6,-1
 500 650 l 1,7,-1
 900 250 l 1,8,-1
 500 -150 l 1,0,-1
EndSplineSet
Validated: 1
EndChar

StartChar: quotesingle
Encoding: 39 39 10
Width: 1000
GlyphClass: 2
Flags: W
LayerCount: 2
Fore
SplineSet
900 250 m 1,0,-1
 500 -150 l 1,1,-1
 100 250 l 1,2,-1
 171 321 l 1,3,-1
 450 41 l 1,4,-1
 450 650 l 1,5,-1
 550 650 l 1,6,-1
 550 41 l 1,7,-1
 830 320 l 1,8,-1
 900 250 l 1,0,-1
EndSplineSet
EndChar

StartChar: parenleft
Encoding: 40 40 11
Width: 1000
GlyphClass: 2
Flags: W
LayerCount: 2
Fore
SplineSet
415 409 m 1,0,-1
 478 472 l 1,1,-1
 700 250 l 1,2,-1
 478 28 l 1,3,-1
 415 91 l 1,4,-1
 530 205 l 1,5,-1
 100 205 l 1,6,-1
 100 295 l 1,7,-1
 530 295 l 1,8,-1
 415 409 l 1,0,-1
811 -150 m 2,9,-1
 189 -150 l 2,10,11
 151 -150 151 -150 125.5 -124 c 128,-1,12
 100 -98 100 -98 100 -61 c 2,13,-1
 100 116 l 1,14,-1
 189 116 l 1,15,-1
 189 -61 l 1,16,-1
 811 -61 l 1,17,-1
 811 561 l 1,18,-1
 189 561 l 1,19,-1
 189 384 l 1,20,-1
 100 384 l 1,21,-1
 100 561 l 2,22,23
 100 598 100 598 125.5 624 c 128,-1,24
 151 650 151 650 189 650 c 2,25,-1
 811 650 l 2,26,27
 848 650 848 650 874 624 c 128,-1,28
 900 598 900 598 900 561 c 2,29,-1
 900 -61 l 2,30,31
 900 -98 900 -98 874 -124 c 128,-1,32
 848 -150 848 -150 811 -150 c 2,9,-1
EndSplineSet
Validated: 1
EndChar

StartChar: parenright
Encoding: 41 41 12
Width: 1000
GlyphClass: 2
Flags: W
LayerCount: 2
Fore
SplineSet
369 88 m 1,0,-1
 800 537 l 1,1,-1
 867 473 l 1,2,-1
 369 -30 l 1,3,-1
 145 200 l 1,4,-1
 198 256 l 1,5,-1
 369 88 l 1,0,-1
EndSplineSet
Validated: 1
EndChar

StartChar: asterisk
Encoding: 42 42 13
Width: 1000
GlyphClass: 2
Flags: W
LayerCount: 2
Fore
SplineSet
857 601 m 1,0,-1
 857 -98 l 1,1,-1
 149 -98 l 1,2,-1
 149 601 l 1,3,-1
 857 601 l 1,0,-1
421 27 m 1,4,-1
 328 274 l 1,5,-1
 219 178 l 1,6,-1
 422 -15 l 1,7,-1
 793 463 l 1,8,-1
 637 557 l 1,9,-1
 421 27 l 1,4,-1
EndSplineSet
Validated: 1
EndChar

StartChar: plus
Encoding: 43 43 14
Width: 1000
GlyphClass: 2
Flags: W
LayerCount: 2
Fore
SplineSet
644 539 m 1,0,-1
 802 443 l 1,1,-1
 426 -39 l 1,2,-1
 214 162 l 1,3,-1
 331 261 l 1,4,-1
 426 38 l 1,5,-1
 644 539 l 1,0,-1
EndSplineSet
Validated: 1
EndChar

StartChar: comma
Encoding: 44 44 15
Width: 1000
GlyphClass: 2
Flags: W
LayerCount: 2
Fore
SplineSet
369 88 m 1,0,-1
 800 537 l 1,1,-1
 867 473 l 1,2,-1
 369 -30 l 1,3,-1
 145 200 l 1,4,-1
 198 256 l 1,5,-1
 369 88 l 1,0,-1
EndSplineSet
Validated: 1
EndChar

StartChar: hyphen
Encoding: 45 45 16
Width: 1000
GlyphClass: 2
Flags: W
LayerCount: 2
Fore
SplineSet
863 -39 m 1,0,-1
 789 -112 l 1,1,-1
 500 177 l 1,2,-1
 211 -112 l 1,3,-1
 138 -39 l 1,4,-1
 427 250 l 1,5,-1
 138 539 l 1,6,-1
 211 613 l 1,7,-1
 500 323 l 1,8,-1
 789 613 l 1,9,-1
 863 539 l 1,10,-1
 573 250 l 1,11,-1
 863 -39 l 1,0,-1
EndSplineSet
Validated: 1
EndChar

StartChar: period
Encoding: 46 46 17
Width: 1000
GlyphClass: 2
Flags: W
LayerCount: 2
Fore
SplineSet
800 -150 m 2,0,-1
 200 -150 l 2,1,2
 158 -150 158 -150 129 -121 c 128,-1,3
 100 -92 100 -92 100 -50 c 2,4,-1
 100 550 l 2,5,6
 100 592 100 592 129 621 c 128,-1,7
 158 650 158 650 200 650 c 2,8,-1
 800 650 l 2,9,10
 842 650 842 650 871 621 c 128,-1,11
 900 592 900 592 900 550 c 2,12,-1
 900 -50 l 2,13,14
 900 -92 900 -92 871 -121 c 128,-1,15
 842 -150 842 -150 800 -150 c 2,0,-1
800 550 m 1,16,-1
 200 550 l 1,17,-1
 200 -50 l 1,18,-1
 800 -50 l 1,19,-1
 800 550 l 1,16,-1
EndSplineSet
Validated: 1
EndChar

StartChar: slash
Encoding: 47 47 18
Width: 1000
GlyphClass: 2
Flags: W
LayerCount: 2
Fore
SplineSet
804 289 m 1,0,1
 807 270 807 270 807 250 c 0,2,3
 807 231 807 231 804 211 c 1,4,-1
 890 144 l 2,5,6
 896 140 896 140 897.5 133 c 128,-1,7
 899 126 899 126 895 119 c 2,8,-1
 813 -20 l 2,9,10
 809 -26 809 -26 802.5 -28.5 c 128,-1,11
 796 -31 796 -31 789 -28 c 2,12,-1
 687 12 l 1,13,14
 656 -11 656 -11 618 -28 c 1,15,-1
 602 -133 l 2,16,17
 599 -150 599 -150 582 -150 c 2,18,-1
 418 -150 l 2,19,20
 410 -150 410 -150 404.5 -145.5 c 128,-1,21
 399 -141 399 -141 399 -133 c 2,22,-1
 383 -28 l 1,23,24
 345 -11 345 -11 313 12 c 1,25,-1
 212 -28 l 2,26,27
 196 -34 196 -34 187 -20 c 2,28,-1
 105 120 l 2,29,30
 101 126 101 126 103 132.5 c 128,-1,31
 105 139 105 139 110 144 c 2,32,-1
 197 211 l 1,33,34
 195 221 195 221 194 230.5 c 128,-1,35
 193 240 193 240 193 250 c 0,36,37
 193 261 193 261 194 270 c 128,-1,38
 195 279 195 279 197 289 c 1,39,-1
 110 356 l 2,40,41
 105 361 105 361 103 367.5 c 128,-1,42
 101 374 101 374 105 381 c 2,43,-1
 187 520 l 2,44,45
 191 526 191 526 198 528.5 c 128,-1,46
 205 531 205 531 212 528 c 2,47,-1
 313 488 l 1,48,49
 345 511 345 511 383 528 c 1,50,-1
 399 633 l 2,51,52
 399 641 399 641 404.5 645.5 c 128,-1,53
 410 650 410 650 418 650 c 2,54,-1
 582 650 l 2,55,56
 599 650 599 650 602 633 c 2,57,-1
 618 528 l 1,58,59
 656 511 656 511 687 488 c 1,60,-1
 789 528 l 2,61,62
 796 531 796 531 802.5 528.5 c 128,-1,63
 809 526 809 526 813 520 c 2,64,-1
 895 381 l 2,65,66
 899 374 899 374 897.5 367 c 128,-1,67
 896 360 896 360 890 356 c 2,68,-1
 804 289 l 1,0,1
500 390 m 256,69,70
 470 390 470 390 444 379 c 128,-1,71
 418 368 418 368 398.5 349 c 128,-1,72
 379 330 379 330 368 304.5 c 128,-1,73
 357 279 357 279 357 250 c 256,74,75
 357 221 357 221 368 195.5 c 128,-1,76
 379 170 379 170 398.5 151 c 128,-1,77
 418 132 418 132 444 121 c 128,-1,78
 470 110 470 110 500 110 c 256,79,80
 530 110 530 110 556 121 c 128,-1,81
 582 132 582 132 601.5 151 c 128,-1,82
 621 170 621 170 632 195.5 c 128,-1,83
 643 221 643 221 643 250 c 256,84,85
 643 279 643 279 632 304.5 c 128,-1,86
 621 330 621 330 601.5 349 c 128,-1,87
 582 368 582 368 556 379 c 128,-1,88
 530 390 530 390 500 390 c 256,69,70
EndSplineSet
Validated: 1
EndChar

StartChar: zero
Encoding: 48 48 19
Width: 1000
GlyphClass: 2
Flags: W
LayerCount: 2
Fore
SplineSet
250 128 m 1,0,-1
 500 400 l 1,1,-1
 750 128 l 1,2,-1
 250 128 l 1,0,-1
EndSplineSet
Validated: 1
EndChar

StartChar: one
Encoding: 49 49 20
Width: 1000
GlyphClass: 2
Flags: W
LayerCount: 2
Fore
SplineSet
250 400 m 1,0,-1
 750 400 l 1,1,-1
 500 128 l 1,2,-1
 250 400 l 1,0,-1
EndSplineSet
Validated: 1
EndChar

StartChar: two
Encoding: 50 50 21
Width: 1000
GlyphClass: 2
Flags: W
LayerCount: 2
Fore
SplineSet
500 40 m 256,0,1
 521 40 521 40 540 31 c 128,-1,2
 559 22 559 22 574 6.5 c 128,-1,3
 589 -9 589 -9 597.5 -28 c 128,-1,4
 606 -47 606 -47 606 -66 c 0,5,6
 606 -89 606 -89 597.5 -110 c 128,-1,7
 589 -131 589 -131 574 -146.5 c 128,-1,8
 559 -162 559 -162 540 -171.5 c 128,-1,9
 521 -181 521 -181 500 -181 c 256,10,11
 479 -181 479 -181 460 -171.5 c 128,-1,12
 441 -162 441 -162 426 -146.5 c 128,-1,13
 411 -131 411 -131 402.5 -110 c 128,-1,14
 394 -89 394 -89 394 -66 c 0,15,16
 394 -47 394 -47 402.5 -28 c 128,-1,17
 411 -9 411 -9 426 6.5 c 128,-1,18
 441 22 441 22 460 31 c 128,-1,19
 479 40 479 40 500 40 c 256,0,1
500 144 m 256,20,21
 479 144 479 144 460 152.5 c 128,-1,22
 441 161 441 161 426 176 c 128,-1,23
 411 191 411 191 402.5 210 c 128,-1,24
 394 229 394 229 394 250 c 256,25,26
 394 271 394 271 402.5 290 c 128,-1,27
 411 309 411 309 426 324 c 128,-1,28
 441 339 441 339 460 347.5 c 128,-1,29
 479 356 479 356 500 356 c 256,30,31
 521 356 521 356 540 347.5 c 128,-1,32
 559 339 559 339 574 324 c 128,-1,33
 589 309 589 309 597.5 290 c 128,-1,34
 606 271 606 271 606 250 c 256,35,36
 606 229 606 229 597.5 210 c 128,-1,37
 589 191 589 191 574 176 c 128,-1,38
 559 161 559 161 540 152.5 c 128,-1,39
 521 144 521 144 500 144 c 256,20,21
500 460 m 256,40,41
 479 460 479 460 460 469.5 c 128,-1,42
 441 479 441 479 426 494 c 128,-1,43
 411 509 411 509 402.5 528 c 128,-1,44
 394 547 394 547 394 566 c 0,45,46
 394 589 394 589 402.5 610.5 c 128,-1,47
 411 632 411 632 426 648 c 128,-1,48
 441 664 441 664 460 673.5 c 128,-1,49
 479 683 479 683 500 683 c 256,50,51
 521 683 521 683 540 673.5 c 128,-1,52
 559 664 559 664 574 648 c 128,-1,53
 589 632 589 632 597.5 610.5 c 128,-1,54
 606 589 606 589 606 566 c 0,55,56
 606 547 606 547 597.5 528 c 128,-1,57
 589 509 589 509 574 494 c 128,-1,58
 559 479 559 479 540 469.5 c 128,-1,59
 521 460 521 460 500 460 c 256,40,41
EndSplineSet
Validated: 1
EndChar

StartChar: three
Encoding: 51 51 22
Width: 1000
GlyphClass: 2
Flags: W
LayerCount: 2
Fore
SplineSet
127 594 m 1,0,-1
 898 594 l 1,1,-1
 898 482 l 1,2,-1
 127 482 l 1,3,-1
 127 594 l 1,0,-1
127 308 m 1,4,-1
 898 308 l 1,5,-1
 898 192 l 1,6,-1
 127 192 l 1,7,-1
 127 308 l 1,4,-1
127 -94 m 1,8,-1
 127 18 l 1,9,-1
 898 18 l 1,10,-1
 898 -94 l 1,11,-1
 127 -94 l 1,8,-1
EndSplineSet
Validated: 1
EndChar

StartChar: four
Encoding: 52 52 23
Width: 1000
GlyphClass: 2
Flags: W
LayerCount: 2
Fore
SplineSet
250 650 m 1,0,-1
 326 520 l 1,1,-1
 269 520 l 1,2,-1
 269 -56 l 1,3,-1
 845 -56 l 1,4,-1
 845 1 l 1,5,-1
 975 -75 l 1,6,-1
 845 -150 l 1,7,-1
 845 -93 l 1,8,-1
 232 -93 l 1,9,-1
 232 520 l 1,10,-1
 175 520 l 1,11,-1
 250 650 l 1,0,-1
688 532 m 0,12,13
 708 532 708 532 722.5 517.5 c 128,-1,14
 737 503 737 503 737 483 c 0,15,16
 737 462 737 462 722.5 447.5 c 128,-1,17
 708 433 708 433 688 433 c 0,18,19
 667 433 667 433 652 447.5 c 128,-1,20
 637 462 637 462 637 483 c 0,21,22
 637 503 637 503 652 517.5 c 128,-1,23
 667 532 667 532 688 532 c 0,12,13
497 486 m 256,24,25
 518 486 518 486 532 471.5 c 128,-1,26
 546 457 546 457 546 436 c 256,27,28
 546 415 546 415 532 400.5 c 128,-1,29
 518 386 518 386 497 386 c 256,30,31
 476 386 476 386 461.5 400.5 c 128,-1,32
 447 415 447 415 447 436 c 256,33,34
 447 457 447 457 461.5 471.5 c 128,-1,35
 476 486 476 486 497 486 c 256,24,25
623 302 m 0,36,37
 644 302 644 302 658.5 287.5 c 128,-1,38
 673 273 673 273 673 252 c 256,39,40
 673 231 673 231 658.5 216.5 c 128,-1,41
 644 202 644 202 623 202 c 0,42,43
 603 202 603 202 588 216.5 c 128,-1,44
 573 231 573 231 573 252 c 256,45,46
 573 273 573 273 588 287.5 c 128,-1,47
 603 302 603 302 623 302 c 0,36,37
426 250 m 0,48,49
 446 250 446 250 461 235.5 c 128,-1,50
 476 221 476 221 476 200 c 256,51,52
 476 179 476 179 461 164.5 c 128,-1,53
 446 150 446 150 426 150 c 0,54,55
 405 150 405 150 390.5 164.5 c 128,-1,56
 376 179 376 179 376 200 c 256,57,58
 376 221 376 221 390.5 235.5 c 128,-1,59
 405 250 405 250 426 250 c 0,48,49
785 202 m 0,60,61
 806 202 806 202 821 187.5 c 128,-1,62
 836 173 836 173 836 152 c 0,63,64
 836 132 836 132 821 117.5 c 128,-1,65
 806 103 806 103 785 103 c 0,66,67
 765 103 765 103 750.5 117.5 c 128,-1,68
 736 132 736 132 736 152 c 0,69,70
 736 173 736 173 750.5 187.5 c 128,-1,71
 765 202 765 202 785 202 c 0,60,61
557 132 m 256,72,73
 578 132 578 132 592.5 117 c 128,-1,74
 607 102 607 102 607 81 c 0,75,76
 607 61 607 61 592.5 46.5 c 128,-1,77
 578 32 578 32 557 32 c 256,78,79
 536 32 536 32 521.5 46.5 c 128,-1,80
 507 61 507 61 507 81 c 0,81,82
 507 102 507 102 521.5 117 c 128,-1,83
 536 132 536 132 557 132 c 256,72,73
372 100 m 0,84,85
 393 100 393 100 407.5 85 c 128,-1,86
 422 70 422 70 422 50 c 0,87,88
 422 29 422 29 407.5 14.5 c 128,-1,89
 393 0 393 0 372 0 c 0,90,91
 352 0 352 0 337 14.5 c 128,-1,92
 322 29 322 29 322 50 c 0,93,94
 322 70 322 70 337 85 c 128,-1,95
 352 100 352 100 372 100 c 0,84,85
EndSplineSet
Validated: 1
EndChar

StartChar: five
Encoding: 53 53 24
Width: 1000
GlyphClass: 2
Flags: W
LayerCount: 2
Fore
SplineSet
176 650 m 1,0,-1
 251 520 l 1,1,-1
 194 520 l 1,2,3
 194 487 194 487 193.5 444.5 c 128,-1,4
 193 402 193 402 193 355.5 c 128,-1,5
 193 309 193 309 193 260.5 c 128,-1,6
 193 212 193 212 193 166 c 0,7,8
 193 59 193 59 194 -56 c 1,9,-1
 271 -56 l 1,10,-1
 271 391 l 1,11,-1
 343 391 l 1,12,-1
 343 -56 l 1,13,-1
 418 -56 l 1,14,-1
 418 70 l 1,15,-1
 490 70 l 1,16,-1
 490 -56 l 1,17,-1
 564 -56 l 1,18,-1
 564 253 l 1,19,-1
 635 253 l 1,20,-1
 635 -56 l 1,21,-1
 770 -56 l 1,22,-1
 770 1 l 1,23,-1
 900 -74 l 1,24,-1
 770 -150 l 1,25,-1
 770 -93 l 1,26,-1
 157 -93 l 1,27,-1
 157 520 l 1,28,-1
 100 520 l 1,29,-1
 176 650 l 1,0,-1
EndSplineSet
Validated: 1
EndChar

StartChar: six
Encoding: 54 54 25
Width: 1000
GlyphClass: 2
Flags: W
LayerCount: 2
Fore
SplineSet
176 650 m 1,0,-1
 251 520 l 1,1,-1
 194 520 l 1,2,-1
 194 -31 l 1,3,-1
 323 248 l 1,4,-1
 442 116 l 1,5,-1
 552 339 l 1,6,-1
 648 393 l 1,7,-1
 633 420 l 1,8,-1
 716 420 l 1,9,-1
 674 348 l 1,10,-1
 658 376 l 1,11,-1
 568 324 l 1,12,-1
 447 80 l 1,13,-1
 329 211 l 1,14,-1
 206 -56 l 1,15,-1
 770 -56 l 1,16,-1
 770 1 l 1,17,-1
 900 -74 l 1,18,-1
 770 -150 l 1,19,-1
 770 -93 l 1,20,-1
 157 -93 l 1,21,-1
 157 520 l 1,22,-1
 100 520 l 1,23,-1
 176 650 l 1,0,-1
EndSplineSet
Validated: 1
EndChar

StartChar: seven
Encoding: 55 55 26
Width: 1000
GlyphClass: 2
Flags: W
LayerCount: 2
Fore
SplineSet
770 -56 m 1,0,-1
 770 1 l 1,1,-1
 900 -74 l 1,2,-1
 770 -150 l 1,3,-1
 770 -93 l 1,4,-1
 157 -93 l 1,5,-1
 157 520 l 1,6,-1
 100 520 l 1,7,-1
 176 650 l 1,8,-1
 251 520 l 1,9,-1
 194 520 l 1,10,-1
 194 -31 l 1,11,-1
 323 248 l 1,12,-1
 442 116 l 1,13,-1
 545 340 l 2,14,15
 547 342 547 342 568.5 354.5 c 128,-1,16
 590 367 590 367 615 382 c 0,17,18
 645 399 645 399 681 420 c 1,19,-1
 709 -56 l 1,20,-1
 770 -56 l 1,0,-1
EndSplineSet
Validated: 1
EndChar

StartChar: eight
Encoding: 56 56 27
Width: 1000
GlyphClass: 2
Flags: W
LayerCount: 2
Fore
SplineSet
214 364 m 1,0,-1
 100 364 l 1,1,-1
 100 650 l 1,2,-1
 386 650 l 1,3,-1
 386 536 l 1,4,-1
 214 536 l 1,5,-1
 214 364 l 1,0,-1
100 136 m 1,6,-1
 214 136 l 1,7,-1
 214 -36 l 1,8,-1
 386 -36 l 1,9,-1
 386 -150 l 1,10,-1
 100 -150 l 1,11,-1
 100 136 l 1,6,-1
786 536 m 1,12,-1
 614 536 l 1,13,-1
 614 650 l 1,14,-1
 900 650 l 1,15,-1
 900 364 l 1,16,-1
 786 364 l 1,17,-1
 786 536 l 1,12,-1
614 -150 m 1,18,-1
 614 -36 l 1,19,-1
 786 -36 l 1,20,-1
 786 136 l 1,21,-1
 900 136 l 1,22,-1
 900 -150 l 1,23,-1
 614 -150 l 1,18,-1
EndSplineSet
Validated: 1
EndChar

StartChar: nine
Encoding: 57 57 28
Width: 1000
GlyphClass: 2
Flags: W
LayerCount: 2
Fore
SplineSet
783 -32 m 1,0,1
 728 -87 728 -87 655.5 -118.5 c 128,-1,2
 583 -150 583 -150 499 -150 c 0,3,4
 416 -150 416 -150 343.5 -118.5 c 128,-1,5
 271 -87 271 -87 217 -33 c 128,-1,6
 163 21 163 21 131.5 94 c 128,-1,7
 100 167 100 167 100 250 c 256,8,9
 100 333 100 333 131.5 406 c 128,-1,10
 163 479 163 479 217 533 c 128,-1,11
 271 587 271 587 343.5 618.5 c 128,-1,12
 416 650 416 650 499 650 c 0,13,14
 569 650 569 650 632 627.5 c 128,-1,15
 695 605 695 605 746 565 c 128,-1,16
 797 525 797 525 833.5 470 c 128,-1,17
 870 415 870 415 887 350 c 1,18,-1
 783 350 l 1,19,20
 767 394 767 394 739 430.5 c 128,-1,21
 711 467 711 467 674 493.5 c 128,-1,22
 637 520 637 520 592.5 535 c 128,-1,23
 548 550 548 550 499 550 c 0,24,25
 437 550 437 550 382.5 526.5 c 128,-1,26
 328 503 328 503 287 462.5 c 128,-1,27
 246 422 246 422 222.5 367 c 128,-1,28
 199 312 199 312 199 250 c 256,29,30
 199 188 199 188 222.5 133 c 128,-1,31
 246 78 246 78 287 37.5 c 128,-1,32
 328 -3 328 -3 382.5 -26.5 c 128,-1,33
 437 -50 437 -50 499 -50 c 0,34,35
 562 -50 562 -50 616 -26.5 c 128,-1,36
 670 -3 670 -3 711 39 c 1,37,-1
 550 200 l 1,38,-1
 900 200 l 1,39,-1
 900 -150 l 1,40,-1
 783 -32 l 1,0,1
EndSplineSet
Validated: 1
EndChar

StartChar: colon
Encoding: 58 58 29
Width: 1000
GlyphClass: 2
Flags: W
LayerCount: 2
Fore
SplineSet
804 289 m 1,0,1
 807 270 807 270 807 250 c 0,2,3
 807 231 807 231 804 211 c 1,4,-1
 890 144 l 2,5,6
 896 140 896 140 897.5 133 c 128,-1,7
 899 126 899 126 895 119 c 2,8,-1
 813 -20 l 2,9,10
 809 -26 809 -26 802.5 -28.5 c 128,-1,11
 796 -31 796 -31 789 -28 c 2,12,-1
 687 12 l 1,13,14
 656 -11 656 -11 618 -28 c 1,15,-1
 602 -133 l 2,16,17
 599 -150 599 -150 582 -150 c 2,18,-1
 418 -150 l 2,19,20
 410 -150 410 -150 404.5 -145.5 c 128,-1,21
 399 -141 399 -141 399 -133 c 2,22,-1
 383 -28 l 1,23,24
 345 -11 345 -11 313 12 c 1,25,-1
 212 -28 l 2,26,27
 196 -34 196 -34 187 -20 c 2,28,-1
 105 120 l 2,29,30
 101 126 101 126 103 132.5 c 128,-1,31
 105 139 105 139 110 144 c 2,32,-1
 197 211 l 1,33,34
 195 221 195 221 194 230.5 c 128,-1,35
 193 240 193 240 193 250 c 0,36,37
 193 261 193 261 194 270 c 128,-1,38
 195 279 195 279 197 289 c 1,39,-1
 110 356 l 2,40,41
 105 361 105 361 103 367.5 c 128,-1,42
 101 374 101 374 105 381 c 2,43,-1
 187 520 l 2,44,45
 191 526 191 526 198 528.5 c 128,-1,46
 205 531 205 531 212 528 c 2,47,-1
 313 488 l 1,48,49
 345 511 345 511 383 528 c 1,50,-1
 399 633 l 2,51,52
 399 641 399 641 404.5 645.5 c 128,-1,53
 410 650 410 650 418 650 c 2,54,-1
 582 650 l 2,55,56
 599 650 599 650 602 633 c 2,57,-1
 618 528 l 1,58,59
 656 511 656 511 687 488 c 1,60,-1
 789 528 l 2,61,62
 796 531 796 531 802.5 528.5 c 128,-1,63
 809 526 809 526 813 520 c 2,64,-1
 895 381 l 2,65,66
 899 374 899 374 897.5 367 c 128,-1,67
 896 360 896 360 890 356 c 2,68,-1
 804 289 l 1,0,1
500 390 m 256,69,70
 470 390 470 390 444 379 c 128,-1,71
 418 368 418 368 398.5 349 c 128,-1,72
 379 330 379 330 368 304.5 c 128,-1,73
 357 279 357 279 357 250 c 256,74,75
 357 221 357 221 368 195.5 c 128,-1,76
 379 170 379 170 398.5 151 c 128,-1,77
 418 132 418 132 444 121 c 128,-1,78
 470 110 470 110 500 110 c 256,79,80
 530 110 530 110 556 121 c 128,-1,81
 582 132 582 132 601.5 151 c 128,-1,82
 621 170 621 170 632 195.5 c 128,-1,83
 643 221 643 221 643 250 c 256,84,85
 643 279 643 279 632 304.5 c 128,-1,86
 621 330 621 330 601.5 349 c 128,-1,87
 582 368 582 368 556 379 c 128,-1,88
 530 390 530 390 500 390 c 256,69,70
EndSplineSet
Validated: 1
EndChar

StartChar: semicolon
Encoding: 59 59 30
Width: 1000
GlyphClass: 2
Flags: W
LayerCount: 2
Fore
SplineSet
100 277 m 1,0,1
 150 314 150 314 203 361.5 c 128,-1,2
 256 409 256 409 308.5 462.5 c 128,-1,3
 361 516 361 516 411 574 c 128,-1,4
 461 632 461 632 506 690 c 1,5,6
 571 608 571 608 619.5 549.5 c 128,-1,7
 668 491 668 491 705 450.5 c 128,-1,8
 742 410 742 410 769 383.5 c 128,-1,9
 796 357 796 357 818.5 338.5 c 128,-1,10
 841 320 841 320 860.5 306 c 128,-1,11
 880 292 880 292 900 277 c 1,12,-1
 852 227 l 1,13,14
 846 233 846 233 832 247 c 128,-1,15
 818 261 818 261 802.5 277 c 128,-1,16
 787 293 787 293 773 307 c 128,-1,17
 759 321 759 321 753 327 c 1,18,19
 738 278 738 278 735.5 218 c 128,-1,20
 733 158 733 158 737.5 98.5 c 128,-1,21
 742 39 742 39 748.5 -15.5 c 128,-1,22
 755 -70 755 -70 758 -110 c 1,23,-1
 591 -110 l 1,24,-1
 588 207 l 1,25,26
 563 209 563 209 532 207 c 0,27,28
 515 207 515 207 498 207 c 2,29,-1
 410 207 l 1,30,-1
 410 -110 l 1,31,-1
 243 -110 l 1,32,33
 245 -70 245 -70 252 -15.5 c 128,-1,34
 259 39 259 39 263 98.5 c 128,-1,35
 267 158 267 158 265 218 c 128,-1,36
 263 278 263 278 248 327 c 1,37,38
 242 321 242 321 228 307 c 128,-1,39
 214 293 214 293 198 277 c 128,-1,40
 182 261 182 261 168 247 c 128,-1,41
 154 233 154 233 148 227 c 1,42,-1
 100 277 l 1,0,1
EndSplineSet
Validated: 33
EndChar

StartChar: less
Encoding: 60 60 31
Width: 1000
GlyphClass: 2
Flags: W
LayerCount: 2
Fore
SplineSet
500 40 m 256,0,1
 521 40 521 40 540 31 c 128,-1,2
 559 22 559 22 574 6.5 c 128,-1,3
 589 -9 589 -9 597.5 -28 c 128,-1,4
 606 -47 606 -47 606 -66 c 0,5,6
 606 -89 606 -89 597.5 -110 c 128,-1,7
 589 -131 589 -131 574 -146.5 c 128,-1,8
 559 -162 559 -162 540 -171.5 c 128,-1,9
 521 -181 521 -181 500 -181 c 256,10,11
 479 -181 479 -181 460 -171.5 c 128,-1,12
 441 -162 441 -162 426 -146.5 c 128,-1,13
 411 -131 411 -131 402.5 -110 c 128,-1,14
 394 -89 394 -89 394 -66 c 0,15,16
 394 -47 394 -47 402.5 -28 c 128,-1,17
 411 -9 411 -9 426 6.5 c 128,-1,18
 441 22 441 22 460 31 c 128,-1,19
 479 40 479 40 500 40 c 256,0,1
500 144 m 256,20,21
 479 144 479 144 460 152.5 c 128,-1,22
 441 161 441 161 426 176 c 128,-1,23
 411 191 411 191 402.5 210 c 128,-1,24
 394 229 394 229 394 250 c 256,25,26
 394 271 394 271 402.5 290 c 128,-1,27
 411 309 411 309 426 324 c 128,-1,28
 441 339 441 339 460 347.5 c 128,-1,29
 479 356 479 356 500 356 c 256,30,31
 521 356 521 356 540 347.5 c 128,-1,32
 559 339 559 339 574 324 c 128,-1,33
 589 309 589 309 597.5 290 c 128,-1,34
 606 271 606 271 606 250 c 256,35,36
 606 229 606 229 597.5 210 c 128,-1,37
 589 191 589 191 574 176 c 128,-1,38
 559 161 559 161 540 152.5 c 128,-1,39
 521 144 521 144 500 144 c 256,20,21
500 460 m 256,40,41
 479 460 479 460 460 469.5 c 128,-1,42
 441 479 441 479 426 494 c 128,-1,43
 411 509 411 509 402.5 528 c 128,-1,44
 394 547 394 547 394 566 c 0,45,46
 394 589 394 589 402.5 610.5 c 128,-1,47
 411 632 411 632 426 648 c 128,-1,48
 441 664 441 664 460 673.5 c 128,-1,49
 479 683 479 683 500 683 c 256,50,51
 521 683 521 683 540 673.5 c 128,-1,52
 559 664 559 664 574 648 c 128,-1,53
 589 632 589 632 597.5 610.5 c 128,-1,54
 606 589 606 589 606 566 c 0,55,56
 606 547 606 547 597.5 528 c 128,-1,57
 589 509 589 509 574 494 c 128,-1,58
 559 479 559 479 540 469.5 c 128,-1,59
 521 460 521 460 500 460 c 256,40,41
EndSplineSet
Validated: 1
EndChar

StartChar: equal
Encoding: 61 61 32
Width: 1000
GlyphClass: 2
Flags: W
LayerCount: 2
Fore
SplineSet
127 594 m 1,0,-1
 898 594 l 1,1,-1
 898 482 l 1,2,-1
 127 482 l 1,3,-1
 127 594 l 1,0,-1
127 308 m 1,4,-1
 898 308 l 1,5,-1
 898 192 l 1,6,-1
 127 192 l 1,7,-1
 127 308 l 1,4,-1
127 -94 m 1,8,-1
 127 18 l 1,9,-1
 898 18 l 1,10,-1
 898 -94 l 1,11,-1
 127 -94 l 1,8,-1
EndSplineSet
Validated: 1
EndChar

StartChar: greater
Encoding: 62 62 33
Width: 1000
GlyphClass: 2
Flags: W
LayerCount: 2
Fore
SplineSet
501 -72 m 1,0,-1
 501 -192 l 1,1,-1
 341 -31 l 1,2,-1
 501 129 l 1,3,-1
 501 10 l 1,4,5
 551 10 551 10 594.5 29 c 128,-1,6
 638 48 638 48 670.5 80.5 c 128,-1,7
 703 113 703 113 721.5 156.5 c 128,-1,8
 740 200 740 200 740 250 c 0,9,10
 740 314 740 314 714 363 c 1,11,-1
 772 421 l 1,12,13
 796 384 796 384 810 340 c 128,-1,14
 824 296 824 296 824 250 c 0,15,16
 824 183 824 183 798.5 124.5 c 128,-1,17
 773 66 773 66 729 22.5 c 128,-1,18
 685 -21 685 -21 626.5 -46.5 c 128,-1,19
 568 -72 568 -72 501 -72 c 1,0,-1
501 490 m 1,20,21
 451 490 451 490 407 471 c 128,-1,22
 363 452 363 452 330.5 419.5 c 128,-1,23
 298 387 298 387 279.5 343.5 c 128,-1,24
 261 300 261 300 261 250 c 0,25,26
 261 219 261 219 268 191 c 128,-1,27
 275 163 275 163 288 137 c 1,28,-1
 229 79 l 1,29,30
 205 116 205 116 192.5 160 c 128,-1,31
 180 204 180 204 180 250 c 0,32,33
 180 317 180 317 205 375.5 c 128,-1,34
 230 434 230 434 273.5 477.5 c 128,-1,35
 317 521 317 521 375.5 546.5 c 128,-1,36
 434 572 434 572 501 572 c 1,37,-1
 501 692 l 1,38,-1
 660 531 l 1,39,-1
 501 371 l 1,40,-1
 501 490 l 1,20,21
EndSplineSet
Validated: 1
EndChar

StartChar: question
Encoding: 63 63 34
Width: 1000
GlyphClass: 2
Flags: W
LayerCount: 2
Fore
SplineSet
250 650 m 1,0,-1
 326 520 l 1,1,-1
 269 520 l 1,2,-1
 269 -56 l 1,3,-1
 845 -56 l 1,4,-1
 845 1 l 1,5,-1
 975 -75 l 1,6,-1
 845 -150 l 1,7,-1
 845 -93 l 1,8,-1
 232 -93 l 1,9,-1
 232 520 l 1,10,-1
 175 520 l 1,11,-1
 250 650 l 1,0,-1
688 532 m 0,12,13
 708 532 708 532 722.5 517.5 c 128,-1,14
 737 503 737 503 737 483 c 0,15,16
 737 462 737 462 722.5 447.5 c 128,-1,17
 708 433 708 433 688 433 c 0,18,19
 667 433 667 433 652 447.5 c 128,-1,20
 637 462 637 462 637 483 c 0,21,22
 637 503 637 503 652 517.5 c 128,-1,23
 667 532 667 532 688 532 c 0,12,13
497 486 m 256,24,25
 518 486 518 486 532 471.5 c 128,-1,26
 546 457 546 457 546 436 c 256,27,28
 546 415 546 415 532 400.5 c 128,-1,29
 518 386 518 386 497 386 c 256,30,31
 476 386 476 386 461.5 400.5 c 128,-1,32
 447 415 447 415 447 436 c 256,33,34
 447 457 447 457 461.5 471.5 c 128,-1,35
 476 486 476 486 497 486 c 256,24,25
623 302 m 0,36,37
 644 302 644 302 658.5 287.5 c 128,-1,38
 673 273 673 273 673 252 c 256,39,40
 673 231 673 231 658.5 216.5 c 128,-1,41
 644 202 644 202 623 202 c 0,42,43
 603 202 603 202 588 216.5 c 128,-1,44
 573 231 573 231 573 252 c 256,45,46
 573 273 573 273 588 287.5 c 128,-1,47
 603 302 603 302 623 302 c 0,36,37
426 250 m 0,48,49
 446 250 446 250 461 235.5 c 128,-1,50
 476 221 476 221 476 200 c 256,51,52
 476 179 476 179 461 164.5 c 128,-1,53
 446 150 446 150 426 150 c 0,54,55
 405 150 405 150 390.5 164.5 c 128,-1,56
 376 179 376 179 376 200 c 256,57,58
 376 221 376 221 390.5 235.5 c 128,-1,59
 405 250 405 250 426 250 c 0,48,49
785 202 m 0,60,61
 806 202 806 202 821 187.5 c 128,-1,62
 836 173 836 173 836 152 c 0,63,64
 836 132 836 132 821 117.5 c 128,-1,65
 806 103 806 103 785 103 c 0,66,67
 765 103 765 103 750.5 117.5 c 128,-1,68
 736 132 736 132 736 152 c 0,69,70
 736 173 736 173 750.5 187.5 c 128,-1,71
 765 202 765 202 785 202 c 0,60,61
557 132 m 256,72,73
 578 132 578 132 592.5 117 c 128,-1,74
 607 102 607 102 607 81 c 0,75,76
 607 61 607 61 592.5 46.5 c 128,-1,77
 578 32 578 32 557 32 c 256,78,79
 536 32 536 32 521.5 46.5 c 128,-1,80
 507 61 507 61 507 81 c 0,81,82
 507 102 507 102 521.5 117 c 128,-1,83
 536 132 536 132 557 132 c 256,72,73
372 100 m 0,84,85
 393 100 393 100 407.5 85 c 128,-1,86
 422 70 422 70 422 50 c 0,87,88
 422 29 422 29 407.5 14.5 c 128,-1,89
 393 0 393 0 372 0 c 0,90,91
 352 0 352 0 337 14.5 c 128,-1,92
 322 29 322 29 322 50 c 0,93,94
 322 70 322 70 337 85 c 128,-1,95
 352 100 352 100 372 100 c 0,84,85
EndSplineSet
Validated: 1
EndChar

StartChar: at
Encoding: 64 64 35
Width: 1000
GlyphClass: 2
Flags: W
LayerCount: 2
Fore
SplineSet
293.15234375 632.873046875 m 5,0,-1
 906.873046875 632.873046875 l 5,1,-1
 906.873046875 19.15234375 l 5,2,-1
 730.84765625 19.15234375 l 5,3,-1
 730.84765625 -156.873046875 l 5,4,-1
 117.126953125 -156.873046875 l 5,5,-1
 117.126953125 456.84765625 l 5,6,-1
 293.15234375 456.84765625 l 5,7,-1
 293.15234375 632.873046875 l 5,0,-1
383.533203125 542.4921875 m 5,8,-1
 383.484375 452.111328125 l 5,9,-1
 730.84765625 452.111328125 l 5,10,-1
 730.84765625 109.58203125 l 5,11,-1
 816.443359375 109.58203125 l 5,12,-1
 816.443359375 542.4921875 l 5,13,-1
 383.533203125 542.4921875 l 5,8,-1
202.771484375 366.515625 m 5,14,-1
 207.5078125 -66.39453125 l 5,15,-1
 635.681640625 -66.39453125 l 5,16,-1
 635.681640625 366.515625 l 5,17,-1
 202.771484375 366.515625 l 5,14,-1
EndSplineSet
EndChar

StartChar: B
Encoding: 66 66 36
AltUni2: 000062.ffffffff.0
Width: 862
GlyphClass: 2
Flags: W
LayerCount: 2
Fore
SplineSet
198 431 m 1,0,-1
 665 431 l 1,1,-1
 665 -35 l 2,2,3
 665 -67 665 -67 642 -90 c 128,-1,4
 619 -113 619 -113 587 -113 c 2,5,-1
 276 -113 l 2,6,7
 244 -113 244 -113 221 -90 c 128,-1,8
 198 -67 198 -67 198 -35 c 2,9,-1
 198 431 l 1,0,-1
703 470 m 1,10,-1
 159 470 l 1,11,-1
 159 548 l 1,12,-1
 295 548 l 1,13,-1
 334 587 l 1,14,-1
 528 587 l 1,15,-1
 567 548 l 1,16,-1
 703 548 l 1,17,-1
 703 470 l 1,10,-1
EndSplineSet
Validated: 1
EndChar

StartChar: C
Encoding: 67 67 37
Width: 1000
GlyphClass: 2
Flags: W
LayerCount: 2
Fore
SplineSet
781 556 m 2,0,-1
 806 529 l 2,1,2
 823 511 823 511 823 487 c 128,-1,3
 823 463 823 463 805 448 c 2,4,-1
 544 238 l 1,5,-1
 608 169 l 2,6,7
 626 151 626 151 626 125 c 2,8,9
 626 125 626 125 625.5 111.5 c 128,-1,10
 625 98 625 98 606 80 c 2,11,-1
 581 56 l 1,12,-1
 298 351 l 1,13,-1
 323 375 l 2,14,15
 341 393 341 393 366 393 c 0,16,17
 367 393 367 393 380 392.5 c 128,-1,18
 393 392 393 392 412 373 c 2,19,-1
 468 317 l 1,20,-1
 700 558 l 2,21,22
 716 574 716 574 739 574 c 0,23,24
 740 574 740 574 752 573.5 c 128,-1,25
 764 573 764 573 781 556 c 2,0,-1
281 332 m 1,26,-1
 561 40 l 2,27,28
 559 38 559 38 531 -6 c 128,-1,29
 503 -50 503 -50 473.5 -75.5 c 128,-1,30
 444 -101 444 -101 401 -113 c 1,31,32
 391 -103 391 -103 348.5 -64.5 c 128,-1,33
 306 -26 306 -26 291.5 -12 c 128,-1,34
 277 2 277 2 242.5 36 c 128,-1,35
 208 70 208 70 189 91.5 c 128,-1,36
 170 113 170 113 144.5 144 c 128,-1,37
 119 175 119 175 99 204 c 1,38,39
 115 213 115 213 146 227 c 128,-1,40
 177 241 177 241 196 251 c 128,-1,41
 215 261 215 261 239.5 282.5 c 128,-1,42
 264 304 264 304 281 332 c 1,26,-1
EndSplineSet
Validated: 1
EndChar

StartChar: D
Encoding: 68 68 38
AltUni2: 000061.ffffffff.0
Width: 1000
GlyphClass: 2
LayerCount: 2
Fore
SplineSet
875 196 m 1,0,-1
 553 196 l 1,1,-1
 553 -125 l 1,2,-1
 431 -125 l 1,3,-1
 431 196 l 1,4,-1
 125 196 l 1,5,-1
 125 303 l 1,6,-1
 431 303 l 1,7,-1
 431 625 l 1,8,-1
 553 625 l 1,9,-1
 553 303 l 1,10,-1
 875 303 l 1,11,-1
 875 196 l 1,0,-1
EndSplineSet
Validated: 1
EndChar

StartChar: E
Encoding: 69 69 39
AltUni2: 000066.ffffffff.0
Width: 1000
GlyphClass: 2
LayerCount: 2
Fore
SplineSet
853 455 m 2,0,-1
 784 386 l 1,1,-1
 642 528 l 1,2,-1
 711 596 l 2,3,4
 723 608 723 608 736 608 c 0,5,6
 737 608 737 608 744.5 607.5 c 128,-1,7
 752 607 752 607 764 596 c 2,8,-1
 853 508 l 2,9,10
 864 497 864 497 864.5 489 c 128,-1,11
 865 481 865 481 865 481 c 2,12,13
 865 467 865 467 853 455 c 2,0,-1
185 70 m 1,14,-1
 602 487 l 1,15,-1
 743 346 l 1,16,-1
 327 -72 l 1,17,-1
 185 -72 l 1,18,-1
 185 70 l 1,14,-1
EndSplineSet
Validated: 1
EndChar

StartChar: F
Encoding: 70 70 40
AltUni2: 000073.ffffffff.0
Width: 1000
GlyphClass: 2
LayerCount: 2
Fore
SplineSet
900 201 m 1,0,-1
 291 201 l 1,1,-1
 571 -80 l 1,2,-1
 500 -150 l 1,3,-1
 100 250 l 1,4,-1
 500 650 l 1,5,-1
 570 580 l 1,6,-1
 291 300 l 1,7,-1
 900 300 l 1,8,-1
 900 201 l 1,0,-1
EndSplineSet
Validated: 1
EndChar

StartChar: G
Encoding: 71 71 41
Width: 1000
GlyphClass: 2
Flags: W
LayerCount: 2
Fore
SplineSet
900 250 m 1,0,-1
 830 180 l 1,1,-1
 550 459 l 1,2,-1
 550 -150 l 1,3,-1
 450 -150 l 1,4,-1
 450 459 l 1,5,-1
 171 179 l 1,6,-1
 100 250 l 1,7,-1
 500 650 l 1,8,-1
 900 250 l 1,0,-1
EndSplineSet
Validated: 1
EndChar

StartChar: H
Encoding: 72 72 42
Width: 1000
GlyphClass: 2
Flags: W
LayerCount: 2
Fore
SplineSet
500 -150 m 1,0,-1
 430 -80 l 1,1,-1
 709 200 l 1,2,-1
 100 200 l 1,3,-1
 100 300 l 1,4,-1
 709 300 l 1,5,-1
 430 580 l 1,6,-1
 500 650 l 1,7,-1
 900 250 l 1,8,-1
 500 -150 l 1,0,-1
EndSplineSet
Validated: 1
EndChar

StartChar: I
Encoding: 73 73 43
Width: 1000
GlyphClass: 2
Flags: W
LayerCount: 2
Fore
SplineSet
900 250 m 1,0,-1
 500 -150 l 1,1,-1
 100 250 l 1,2,-1
 171 321 l 1,3,-1
 450 41 l 1,4,-1
 450 650 l 1,5,-1
 550 650 l 1,6,-1
 550 41 l 1,7,-1
 830 320 l 1,8,-1
 900 250 l 1,0,-1
EndSplineSet
Validated: 1
EndChar

StartChar: J
Encoding: 74 74 44
Width: 1000
GlyphClass: 2
Flags: W
LayerCount: 2
Fore
SplineSet
250 128 m 1,0,-1
 500 400 l 1,1,-1
 750 128 l 1,2,-1
 250 128 l 1,0,-1
EndSplineSet
Validated: 1
EndChar

StartChar: K
Encoding: 75 75 45
Width: 1000
GlyphClass: 2
Flags: W
LayerCount: 2
Fore
SplineSet
863 -39 m 1,0,-1
 789 -112 l 1,1,-1
 500 177 l 1,2,-1
 211 -112 l 1,3,-1
 138 -39 l 1,4,-1
 427 250 l 1,5,-1
 138 539 l 1,6,-1
 211 613 l 1,7,-1
 500 323 l 1,8,-1
 789 613 l 1,9,-1
 863 539 l 1,10,-1
 573 250 l 1,11,-1
 863 -39 l 1,0,-1
EndSplineSet
Validated: 1
EndChar

StartChar: L
Encoding: 76 76 46
Width: 1000
GlyphClass: 2
Flags: W
LayerCount: 2
Fore
SplineSet
369 88 m 1,0,-1
 800 537 l 1,1,-1
 867 473 l 1,2,-1
 369 -30 l 1,3,-1
 145 200 l 1,4,-1
 198 256 l 1,5,-1
 369 88 l 1,0,-1
EndSplineSet
Validated: 1
EndChar

StartChar: M
Encoding: 77 77 47
Width: 1000
GlyphClass: 2
Flags: W
LayerCount: 2
Fore
SplineSet
415 409 m 1,0,-1
 478 472 l 1,1,-1
 700 250 l 1,2,-1
 478 28 l 1,3,-1
 415 91 l 1,4,-1
 530 205 l 1,5,-1
 100 205 l 1,6,-1
 100 295 l 1,7,-1
 530 295 l 1,8,-1
 415 409 l 1,0,-1
811 -150 m 2,9,-1
 189 -150 l 2,10,11
 151 -150 151 -150 125.5 -124 c 128,-1,12
 100 -98 100 -98 100 -61 c 2,13,-1
 100 116 l 1,14,-1
 189 116 l 1,15,-1
 189 -61 l 1,16,-1
 811 -61 l 1,17,-1
 811 561 l 1,18,-1
 189 561 l 1,19,-1
 189 384 l 1,20,-1
 100 384 l 1,21,-1
 100 561 l 2,22,23
 100 598 100 598 125.5 624 c 128,-1,24
 151 650 151 650 189 650 c 2,25,-1
 811 650 l 2,26,27
 848 650 848 650 874 624 c 128,-1,28
 900 598 900 598 900 561 c 2,29,-1
 900 -61 l 2,30,31
 900 -98 900 -98 874 -124 c 128,-1,32
 848 -150 848 -150 811 -150 c 2,9,-1
EndSplineSet
Validated: 1
EndChar

StartChar: N
Encoding: 78 78 48
Width: 1000
GlyphClass: 2
Flags: W
LayerCount: 2
Fore
SplineSet
214 364 m 1,0,-1
 100 364 l 1,1,-1
 100 650 l 1,2,-1
 386 650 l 1,3,-1
 386 536 l 1,4,-1
 214 536 l 1,5,-1
 214 364 l 1,0,-1
100 136 m 1,6,-1
 214 136 l 1,7,-1
 214 -36 l 1,8,-1
 386 -36 l 1,9,-1
 386 -150 l 1,10,-1
 100 -150 l 1,11,-1
 100 136 l 1,6,-1
786 536 m 1,12,-1
 614 536 l 1,13,-1
 614 650 l 1,14,-1
 900 650 l 1,15,-1
 900 364 l 1,16,-1
 786 364 l 1,17,-1
 786 536 l 1,12,-1
614 -150 m 1,18,-1
 614 -36 l 1,19,-1
 786 -36 l 1,20,-1
 786 136 l 1,21,-1
 900 136 l 1,22,-1
 900 -150 l 1,23,-1
 614 -150 l 1,18,-1
EndSplineSet
Validated: 1
EndChar

StartChar: O
Encoding: 79 79 49
Width: 1000
GlyphClass: 2
Flags: W
LayerCount: 2
Fore
SplineSet
510 112 m 0,0,1
 423 112 423 112 356.5 138 c 128,-1,2
 290 164 290 164 237 218 c 1,3,-1
 100 73 l 1,4,-1
 100 427 l 1,5,-1
 443 427 l 1,6,-1
 305 282 l 1,7,8
 386 218 386 218 510 218 c 0,9,10
 561 218 561 218 607.5 233 c 128,-1,11
 654 248 654 248 692.5 275.5 c 128,-1,12
 731 303 731 303 760.5 341.5 c 128,-1,13
 790 380 790 380 808 427 c 1,14,-1
 913 395 l 1,15,16
 888 336 888 336 847.5 284.5 c 128,-1,17
 807 233 807 233 754.5 194.5 c 128,-1,18
 702 156 702 156 640 134 c 128,-1,19
 578 112 578 112 510 112 c 0,0,1
EndSplineSet
Validated: 1
EndChar

StartChar: P
Encoding: 80 80 50
Width: 1000
GlyphClass: 2
Flags: W
LayerCount: 2
Fore
SplineSet
800 -150 m 2,0,-1
 200 -150 l 2,1,2
 158 -150 158 -150 129 -121 c 128,-1,3
 100 -92 100 -92 100 -50 c 2,4,-1
 100 550 l 2,5,6
 100 592 100 592 129 621 c 128,-1,7
 158 650 158 650 200 650 c 2,8,-1
 800 650 l 2,9,10
 842 650 842 650 871 621 c 128,-1,11
 900 592 900 592 900 550 c 2,12,-1
 900 -50 l 2,13,14
 900 -92 900 -92 871 -121 c 128,-1,15
 842 -150 842 -150 800 -150 c 2,0,-1
800 550 m 1,16,-1
 200 550 l 1,17,-1
 200 -50 l 1,18,-1
 800 -50 l 1,19,-1
 800 550 l 1,16,-1
EndSplineSet
Validated: 1
EndChar

StartChar: Q
Encoding: 81 81 51
Width: 1000
GlyphClass: 2
Flags: W
LayerCount: 2
Fore
SplineSet
783 -32 m 1,0,1
 728 -87 728 -87 655.5 -118.5 c 128,-1,2
 583 -150 583 -150 499 -150 c 0,3,4
 416 -150 416 -150 343.5 -118.5 c 128,-1,5
 271 -87 271 -87 217 -33 c 128,-1,6
 163 21 163 21 131.5 94 c 128,-1,7
 100 167 100 167 100 250 c 256,8,9
 100 333 100 333 131.5 406 c 128,-1,10
 163 479 163 479 217 533 c 128,-1,11
 271 587 271 587 343.5 618.5 c 128,-1,12
 416 650 416 650 499 650 c 0,13,14
 569 650 569 650 632 627.5 c 128,-1,15
 695 605 695 605 746 565 c 128,-1,16
 797 525 797 525 833.5 470 c 128,-1,17
 870 415 870 415 887 350 c 1,18,-1
 783 350 l 1,19,20
 767 394 767 394 739 430.5 c 128,-1,21
 711 467 711 467 674 493.5 c 128,-1,22
 637 520 637 520 592.5 535 c 128,-1,23
 548 550 548 550 499 550 c 0,24,25
 437 550 437 550 382.5 526.5 c 128,-1,26
 328 503 328 503 287 462.5 c 128,-1,27
 246 422 246 422 222.5 367 c 128,-1,28
 199 312 199 312 199 250 c 256,29,30
 199 188 199 188 222.5 133 c 128,-1,31
 246 78 246 78 287 37.5 c 128,-1,32
 328 -3 328 -3 382.5 -26.5 c 128,-1,33
 437 -50 437 -50 499 -50 c 0,34,35
 562 -50 562 -50 616 -26.5 c 128,-1,36
 670 -3 670 -3 711 39 c 1,37,-1
 550 200 l 1,38,-1
 900 200 l 1,39,-1
 900 -150 l 1,40,-1
 783 -32 l 1,0,1
EndSplineSet
Validated: 1
EndChar

StartChar: R
Encoding: 82 82 52
Width: 1000
GlyphClass: 2
Flags: W
LayerCount: 2
Fore
SplineSet
804 289 m 1,0,1
 807 270 807 270 807 250 c 0,2,3
 807 231 807 231 804 211 c 1,4,-1
 890 144 l 2,5,6
 896 140 896 140 897.5 133 c 128,-1,7
 899 126 899 126 895 119 c 2,8,-1
 813 -20 l 2,9,10
 809 -26 809 -26 802.5 -28.5 c 128,-1,11
 796 -31 796 -31 789 -28 c 2,12,-1
 687 12 l 1,13,14
 656 -11 656 -11 618 -28 c 1,15,-1
 602 -133 l 2,16,17
 599 -150 599 -150 582 -150 c 2,18,-1
 418 -150 l 2,19,20
 410 -150 410 -150 404.5 -145.5 c 128,-1,21
 399 -141 399 -141 399 -133 c 2,22,-1
 383 -28 l 1,23,24
 345 -11 345 -11 313 12 c 1,25,-1
 212 -28 l 2,26,27
 196 -34 196 -34 187 -20 c 2,28,-1
 105 120 l 2,29,30
 101 126 101 126 103 132.5 c 128,-1,31
 105 139 105 139 110 144 c 2,32,-1
 197 211 l 1,33,34
 195 221 195 221 194 230.5 c 128,-1,35
 193 240 193 240 193 250 c 0,36,37
 193 261 193 261 194 270 c 128,-1,38
 195 279 195 279 197 289 c 1,39,-1
 110 356 l 2,40,41
 105 361 105 361 103 367.5 c 128,-1,42
 101 374 101 374 105 381 c 2,43,-1
 187 520 l 2,44,45
 191 526 191 526 198 528.5 c 128,-1,46
 205 531 205 531 212 528 c 2,47,-1
 313 488 l 1,48,49
 345 511 345 511 383 528 c 1,50,-1
 399 633 l 2,51,52
 399 641 399 641 404.5 645.5 c 128,-1,53
 410 650 410 650 418 650 c 2,54,-1
 582 650 l 2,55,56
 599 650 599 650 602 633 c 2,57,-1
 618 528 l 1,58,59
 656 511 656 511 687 488 c 1,60,-1
 789 528 l 2,61,62
 796 531 796 531 802.5 528.5 c 128,-1,63
 809 526 809 526 813 520 c 2,64,-1
 895 381 l 2,65,66
 899 374 899 374 897.5 367 c 128,-1,67
 896 360 896 360 890 356 c 2,68,-1
 804 289 l 1,0,1
500 390 m 256,69,70
 470 390 470 390 444 379 c 128,-1,71
 418 368 418 368 398.5 349 c 128,-1,72
 379 330 379 330 368 304.5 c 128,-1,73
 357 279 357 279 357 250 c 256,74,75
 357 221 357 221 368 195.5 c 128,-1,76
 379 170 379 170 398.5 151 c 128,-1,77
 418 132 418 132 444 121 c 128,-1,78
 470 110 470 110 500 110 c 256,79,80
 530 110 530 110 556 121 c 128,-1,81
 582 132 582 132 601.5 151 c 128,-1,82
 621 170 621 170 632 195.5 c 128,-1,83
 643 221 643 221 643 250 c 256,84,85
 643 279 643 279 632 304.5 c 128,-1,86
 621 330 621 330 601.5 349 c 128,-1,87
 582 368 582 368 556 379 c 128,-1,88
 530 390 530 390 500 390 c 256,69,70
EndSplineSet
Validated: 1
EndChar

StartChar: S
Encoding: 83 83 53
Width: 1000
GlyphClass: 2
Flags: W
LayerCount: 2
Fore
SplineSet
100 277 m 1,0,1
 150 314 150 314 203 361.5 c 128,-1,2
 256 409 256 409 308.5 462.5 c 128,-1,3
 361 516 361 516 411 574 c 128,-1,4
 461 632 461 632 506 690 c 1,5,6
 571 608 571 608 619.5 549.5 c 128,-1,7
 668 491 668 491 705 450.5 c 128,-1,8
 742 410 742 410 769 383.5 c 128,-1,9
 796 357 796 357 818.5 338.5 c 128,-1,10
 841 320 841 320 860.5 306 c 128,-1,11
 880 292 880 292 900 277 c 1,12,-1
 852 227 l 1,13,14
 846 233 846 233 832 247 c 128,-1,15
 818 261 818 261 802.5 277 c 128,-1,16
 787 293 787 293 773 307 c 128,-1,17
 759 321 759 321 753 327 c 1,18,19
 738 278 738 278 735.5 218 c 128,-1,20
 733 158 733 158 737.5 98.5 c 128,-1,21
 742 39 742 39 748.5 -15.5 c 128,-1,22
 755 -70 755 -70 758 -110 c 1,23,-1
 591 -110 l 1,24,-1
 588 207 l 1,25,26
 563 209 563 209 532 207 c 0,27,28
 515 207 515 207 498 207 c 2,29,-1
 410 207 l 1,30,-1
 410 -110 l 1,31,-1
 243 -110 l 1,32,33
 245 -70 245 -70 252 -15.5 c 128,-1,34
 259 39 259 39 263 98.5 c 128,-1,35
 267 158 267 158 265 218 c 128,-1,36
 263 278 263 278 248 327 c 1,37,38
 242 321 242 321 228 307 c 128,-1,39
 214 293 214 293 198 277 c 128,-1,40
 182 261 182 261 168 247 c 128,-1,41
 154 233 154 233 148 227 c 1,42,-1
 100 277 l 1,0,1
EndSplineSet
Validated: 33
EndChar

StartChar: T
Encoding: 84 84 54
Width: 1000
GlyphClass: 2
LayerCount: 2
Fore
SplineSet
500 40 m 256,0,1
 521 40 521 40 540 31 c 128,-1,2
 559 22 559 22 574 6.5 c 128,-1,3
 589 -9 589 -9 597.5 -28 c 128,-1,4
 606 -47 606 -47 606 -66 c 0,5,6
 606 -89 606 -89 597.5 -110 c 128,-1,7
 589 -131 589 -131 574 -146.5 c 128,-1,8
 559 -162 559 -162 540 -171.5 c 128,-1,9
 521 -181 521 -181 500 -181 c 256,10,11
 479 -181 479 -181 460 -171.5 c 128,-1,12
 441 -162 441 -162 426 -146.5 c 128,-1,13
 411 -131 411 -131 402.5 -110 c 128,-1,14
 394 -89 394 -89 394 -66 c 0,15,16
 394 -47 394 -47 402.5 -28 c 128,-1,17
 411 -9 411 -9 426 6.5 c 128,-1,18
 441 22 441 22 460 31 c 128,-1,19
 479 40 479 40 500 40 c 256,0,1
500 144 m 256,20,21
 479 144 479 144 460 152.5 c 128,-1,22
 441 161 441 161 426 176 c 128,-1,23
 411 191 411 191 402.5 210 c 128,-1,24
 394 229 394 229 394 250 c 256,25,26
 394 271 394 271 402.5 290 c 128,-1,27
 411 309 411 309 426 324 c 128,-1,28
 441 339 441 339 460 347.5 c 128,-1,29
 479 356 479 356 500 356 c 256,30,31
 521 356 521 356 540 347.5 c 128,-1,32
 559 339 559 339 574 324 c 128,-1,33
 589 309 589 309 597.5 290 c 128,-1,34
 606 271 606 271 606 250 c 256,35,36
 606 229 606 229 597.5 210 c 128,-1,37
 589 191 589 191 574 176 c 128,-1,38
 559 161 559 161 540 152.5 c 128,-1,39
 521 144 521 144 500 144 c 256,20,21
500 460 m 256,40,41
 479 460 479 460 460 469.5 c 128,-1,42
 441 479 441 479 426 494 c 128,-1,43
 411 509 411 509 402.5 528 c 128,-1,44
 394 547 394 547 394 566 c 0,45,46
 394 589 394 589 402.5 610.5 c 128,-1,47
 411 632 411 632 426 648 c 128,-1,48
 441 664 441 664 460 673.5 c 128,-1,49
 479 683 479 683 500 683 c 256,50,51
 521 683 521 683 540 673.5 c 128,-1,52
 559 664 559 664 574 648 c 128,-1,53
 589 632 589 632 597.5 610.5 c 128,-1,54
 606 589 606 589 606 566 c 0,55,56
 606 547 606 547 597.5 528 c 128,-1,57
 589 509 589 509 574 494 c 128,-1,58
 559 479 559 479 540 469.5 c 128,-1,59
 521 460 521 460 500 460 c 256,40,41
EndSplineSet
Validated: 1
EndChar

StartChar: U
Encoding: 85 85 55
Width: 1000
GlyphClass: 2
LayerCount: 2
Fore
SplineSet
127 594 m 1,0,-1
 898 594 l 1,1,-1
 898 482 l 1,2,-1
 127 482 l 1,3,-1
 127 594 l 1,0,-1
127 308 m 1,4,-1
 898 308 l 1,5,-1
 898 192 l 1,6,-1
 127 192 l 1,7,-1
 127 308 l 1,4,-1
127 -94 m 1,8,-1
 127 18 l 1,9,-1
 898 18 l 1,10,-1
 898 -94 l 1,11,-1
 127 -94 l 1,8,-1
EndSplineSet
Validated: 1
EndChar

StartChar: V
Encoding: 86 86 56
Width: 1000
GlyphClass: 2
LayerCount: 2
Fore
SplineSet
501 -72 m 1,0,-1
 501 -192 l 1,1,-1
 341 -31 l 1,2,-1
 501 129 l 1,3,-1
 501 10 l 1,4,5
 551 10 551 10 594.5 29 c 128,-1,6
 638 48 638 48 670.5 80.5 c 128,-1,7
 703 113 703 113 721.5 156.5 c 128,-1,8
 740 200 740 200 740 250 c 0,9,10
 740 314 740 314 714 363 c 1,11,-1
 772 421 l 1,12,13
 796 384 796 384 810 340 c 128,-1,14
 824 296 824 296 824 250 c 0,15,16
 824 183 824 183 798.5 124.5 c 128,-1,17
 773 66 773 66 729 22.5 c 128,-1,18
 685 -21 685 -21 626.5 -46.5 c 128,-1,19
 568 -72 568 -72 501 -72 c 1,0,-1
501 490 m 1,20,21
 451 490 451 490 407 471 c 128,-1,22
 363 452 363 452 330.5 419.5 c 128,-1,23
 298 387 298 387 279.5 343.5 c 128,-1,24
 261 300 261 300 261 250 c 0,25,26
 261 219 261 219 268 191 c 128,-1,27
 275 163 275 163 288 137 c 1,28,-1
 229 79 l 1,29,30
 205 116 205 116 192.5 160 c 128,-1,31
 180 204 180 204 180 250 c 0,32,33
 180 317 180 317 205 375.5 c 128,-1,34
 230 434 230 434 273.5 477.5 c 128,-1,35
 317 521 317 521 375.5 546.5 c 128,-1,36
 434 572 434 572 501 572 c 1,37,-1
 501 692 l 1,38,-1
 660 531 l 1,39,-1
 501 371 l 1,40,-1
 501 490 l 1,20,21
EndSplineSet
Validated: 1
EndChar

StartChar: W
Encoding: 87 87 57
Width: 1000
GlyphClass: 2
LayerCount: 2
Fore
SplineSet
176 650 m 1,0,-1
 251 520 l 1,1,-1
 194 520 l 1,2,3
 194 487 194 487 193.5 444.5 c 128,-1,4
 193 402 193 402 193 355.5 c 128,-1,5
 193 309 193 309 193 260.5 c 128,-1,6
 193 212 193 212 193 166 c 0,7,8
 193 59 193 59 194 -56 c 1,9,-1
 271 -56 l 1,10,-1
 271 391 l 1,11,-1
 343 391 l 1,12,-1
 343 -56 l 1,13,-1
 418 -56 l 1,14,-1
 418 70 l 1,15,-1
 490 70 l 1,16,-1
 490 -56 l 1,17,-1
 564 -56 l 1,18,-1
 564 253 l 1,19,-1
 635 253 l 1,20,-1
 635 -56 l 1,21,-1
 770 -56 l 1,22,-1
 770 1 l 1,23,-1
 900 -74 l 1,24,-1
 770 -150 l 1,25,-1
 770 -93 l 1,26,-1
 157 -93 l 1,27,-1
 157 520 l 1,28,-1
 100 520 l 1,29,-1
 176 650 l 1,0,-1
EndSplineSet
Validated: 1
EndChar

StartChar: X
Encoding: 88 88 58
Width: 1000
GlyphClass: 2
LayerCount: 2
Fore
SplineSet
250 650 m 1,0,-1
 326 520 l 1,1,-1
 269 520 l 1,2,-1
 269 -56 l 1,3,-1
 845 -56 l 1,4,-1
 845 1 l 1,5,-1
 975 -75 l 1,6,-1
 845 -150 l 1,7,-1
 845 -93 l 1,8,-1
 232 -93 l 1,9,-1
 232 520 l 1,10,-1
 175 520 l 1,11,-1
 250 650 l 1,0,-1
688 532 m 0,12,13
 708 532 708 532 722.5 517.5 c 128,-1,14
 737 503 737 503 737 483 c 0,15,16
 737 462 737 462 722.5 447.5 c 128,-1,17
 708 433 708 433 688 433 c 0,18,19
 667 433 667 433 652 447.5 c 128,-1,20
 637 462 637 462 637 483 c 0,21,22
 637 503 637 503 652 517.5 c 128,-1,23
 667 532 667 532 688 532 c 0,12,13
497 486 m 256,24,25
 518 486 518 486 532 471.5 c 128,-1,26
 546 457 546 457 546 436 c 256,27,28
 546 415 546 415 532 400.5 c 128,-1,29
 518 386 518 386 497 386 c 256,30,31
 476 386 476 386 461.5 400.5 c 128,-1,32
 447 415 447 415 447 436 c 256,33,34
 447 457 447 457 461.5 471.5 c 128,-1,35
 476 486 476 486 497 486 c 256,24,25
623 302 m 0,36,37
 644 302 644 302 658.5 287.5 c 128,-1,38
 673 273 673 273 673 252 c 256,39,40
 673 231 673 231 658.5 216.5 c 128,-1,41
 644 202 644 202 623 202 c 0,42,43
 603 202 603 202 588 216.5 c 128,-1,44
 573 231 573 231 573 252 c 256,45,46
 573 273 573 273 588 287.5 c 128,-1,47
 603 302 603 302 623 302 c 0,36,37
426 250 m 0,48,49
 446 250 446 250 461 235.5 c 128,-1,50
 476 221 476 221 476 200 c 256,51,52
 476 179 476 179 461 164.5 c 128,-1,53
 446 150 446 150 426 150 c 0,54,55
 405 150 405 150 390.5 164.5 c 128,-1,56
 376 179 376 179 376 200 c 256,57,58
 376 221 376 221 390.5 235.5 c 128,-1,59
 405 250 405 250 426 250 c 0,48,49
785 202 m 0,60,61
 806 202 806 202 821 187.5 c 128,-1,62
 836 173 836 173 836 152 c 0,63,64
 836 132 836 132 821 117.5 c 128,-1,65
 806 103 806 103 785 103 c 0,66,67
 765 103 765 103 750.5 117.5 c 128,-1,68
 736 132 736 132 736 152 c 0,69,70
 736 173 736 173 750.5 187.5 c 128,-1,71
 765 202 765 202 785 202 c 0,60,61
557 132 m 256,72,73
 578 132 578 132 592.5 117 c 128,-1,74
 607 102 607 102 607 81 c 0,75,76
 607 61 607 61 592.5 46.5 c 128,-1,77
 578 32 578 32 557 32 c 256,78,79
 536 32 536 32 521.5 46.5 c 128,-1,80
 507 61 507 61 507 81 c 0,81,82
 507 102 507 102 521.5 117 c 128,-1,83
 536 132 536 132 557 132 c 256,72,73
372 100 m 0,84,85
 393 100 393 100 407.5 85 c 128,-1,86
 422 70 422 70 422 50 c 0,87,88
 422 29 422 29 407.5 14.5 c 128,-1,89
 393 0 393 0 372 0 c 0,90,91
 352 0 352 0 337 14.5 c 128,-1,92
 322 29 322 29 322 50 c 0,93,94
 322 70 322 70 337 85 c 128,-1,95
 352 100 352 100 372 100 c 0,84,85
EndSplineSet
Validated: 1
EndChar

StartChar: Y
Encoding: 89 89 59
Width: 1000
GlyphClass: 2
LayerCount: 2
Fore
SplineSet
176 650 m 1,0,-1
 251 520 l 1,1,-1
 194 520 l 1,2,-1
 194 -31 l 1,3,-1
 323 248 l 1,4,-1
 442 116 l 1,5,-1
 552 339 l 1,6,-1
 648 393 l 1,7,-1
 633 420 l 1,8,-1
 716 420 l 1,9,-1
 674 348 l 1,10,-1
 658 376 l 1,11,-1
 568 324 l 1,12,-1
 447 80 l 1,13,-1
 329 211 l 1,14,-1
 206 -56 l 1,15,-1
 770 -56 l 1,16,-1
 770 1 l 1,17,-1
 900 -74 l 1,18,-1
 770 -150 l 1,19,-1
 770 -93 l 1,20,-1
 157 -93 l 1,21,-1
 157 520 l 1,22,-1
 100 520 l 1,23,-1
 176 650 l 1,0,-1
EndSplineSet
Validated: 1
EndChar

StartChar: Z
Encoding: 90 90 60
Width: 1000
GlyphClass: 2
LayerCount: 2
Fore
SplineSet
770 -56 m 1,0,-1
 770 1 l 1,1,-1
 900 -74 l 1,2,-1
 770 -150 l 1,3,-1
 770 -93 l 1,4,-1
 157 -93 l 1,5,-1
 157 520 l 1,6,-1
 100 520 l 1,7,-1
 176 650 l 1,8,-1
 251 520 l 1,9,-1
 194 520 l 1,10,-1
 194 -31 l 1,11,-1
 323 248 l 1,12,-1
 442 116 l 1,13,-1
 545 340 l 2,14,15
 547 342 547 342 568.5 354.5 c 128,-1,16
 590 367 590 367 615 382 c 0,17,18
 645 399 645 399 681 420 c 1,19,-1
 709 -56 l 1,20,-1
 770 -56 l 1,0,-1
EndSplineSet
Validated: 1
EndChar

StartChar: bracketleft
Encoding: 91 91 61
Width: 1000
GlyphClass: 2
LayerCount: 2
Fore
SplineSet
857 601 m 1,0,-1
 857 -98 l 1,1,-1
 149 -98 l 1,2,-1
 149 601 l 1,3,-1
 857 601 l 1,0,-1
421 27 m 1,4,-1
 328 274 l 1,5,-1
 219 178 l 1,6,-1
 422 -15 l 1,7,-1
 793 463 l 1,8,-1
 637 557 l 1,9,-1
 421 27 l 1,4,-1
EndSplineSet
Validated: 1
EndChar

StartChar: backslash
Encoding: 92 92 62
Width: 1000
GlyphClass: 2
LayerCount: 2
Fore
SplineSet
644 539 m 1,0,-1
 802 443 l 1,1,-1
 426 -39 l 1,2,-1
 214 162 l 1,3,-1
 331 261 l 1,4,-1
 426 38 l 1,5,-1
 644 539 l 1,0,-1
EndSplineSet
Validated: 1
EndChar

StartChar: bracketright
Encoding: 93 93 63
Width: 1000
GlyphClass: 2
LayerCount: 2
Fore
SplineSet
369 88 m 1,0,-1
 800 537 l 1,1,-1
 867 473 l 1,2,-1
 369 -30 l 1,3,-1
 145 200 l 1,4,-1
 198 256 l 1,5,-1
 369 88 l 1,0,-1
EndSplineSet
Validated: 1
EndChar

StartChar: asciicircum
Encoding: 94 94 64
Width: 1000
GlyphClass: 2
LayerCount: 2
Fore
SplineSet
214 364 m 1,0,-1
 100 364 l 1,1,-1
 100 650 l 1,2,-1
 386 650 l 1,3,-1
 386 536 l 1,4,-1
 214 536 l 1,5,-1
 214 364 l 1,0,-1
100 136 m 1,6,-1
 214 136 l 1,7,-1
 214 -36 l 1,8,-1
 386 -36 l 1,9,-1
 386 -150 l 1,10,-1
 100 -150 l 1,11,-1
 100 136 l 1,6,-1
786 536 m 1,12,-1
 614 536 l 1,13,-1
 614 650 l 1,14,-1
 900 650 l 1,15,-1
 900 364 l 1,16,-1
 786 364 l 1,17,-1
 786 536 l 1,12,-1
614 -150 m 1,18,-1
 614 -36 l 1,19,-1
 786 -36 l 1,20,-1
 786 136 l 1,21,-1
 900 136 l 1,22,-1
 900 -150 l 1,23,-1
 614 -150 l 1,18,-1
EndSplineSet
Validated: 1
EndChar

StartChar: underscore
Encoding: 95 95 65
Width: 1000
GlyphClass: 2
LayerCount: 2
Fore
SplineSet
500 40 m 256,0,1
 521 40 521 40 540 31 c 128,-1,2
 559 22 559 22 574 6.5 c 128,-1,3
 589 -9 589 -9 597.5 -28 c 128,-1,4
 606 -47 606 -47 606 -66 c 0,5,6
 606 -89 606 -89 597.5 -110 c 128,-1,7
 589 -131 589 -131 574 -146.5 c 128,-1,8
 559 -162 559 -162 540 -171.5 c 128,-1,9
 521 -181 521 -181 500 -181 c 256,10,11
 479 -181 479 -181 460 -171.5 c 128,-1,12
 441 -162 441 -162 426 -146.5 c 128,-1,13
 411 -131 411 -131 402.5 -110 c 128,-1,14
 394 -89 394 -89 394 -66 c 0,15,16
 394 -47 394 -47 402.5 -28 c 128,-1,17
 411 -9 411 -9 426 6.5 c 128,-1,18
 441 22 441 22 460 31 c 128,-1,19
 479 40 479 40 500 40 c 256,0,1
500 144 m 256,20,21
 479 144 479 144 460 152.5 c 128,-1,22
 441 161 441 161 426 176 c 128,-1,23
 411 191 411 191 402.5 210 c 128,-1,24
 394 229 394 229 394 250 c 256,25,26
 394 271 394 271 402.5 290 c 128,-1,27
 411 309 411 309 426 324 c 128,-1,28
 441 339 441 339 460 347.5 c 128,-1,29
 479 356 479 356 500 356 c 256,30,31
 521 356 521 356 540 347.5 c 128,-1,32
 559 339 559 339 574 324 c 128,-1,33
 589 309 589 309 597.5 290 c 128,-1,34
 606 271 606 271 606 250 c 256,35,36
 606 229 606 229 597.5 210 c 128,-1,37
 589 191 589 191 574 176 c 128,-1,38
 559 161 559 161 540 152.5 c 128,-1,39
 521 144 521 144 500 144 c 256,20,21
500 460 m 256,40,41
 479 460 479 460 460 469.5 c 128,-1,42
 441 479 441 479 426 494 c 128,-1,43
 411 509 411 509 402.5 528 c 128,-1,44
 394 547 394 547 394 566 c 0,45,46
 394 589 394 589 402.5 610.5 c 128,-1,47
 411 632 411 632 426 648 c 128,-1,48
 441 664 441 664 460 673.5 c 128,-1,49
 479 683 479 683 500 683 c 256,50,51
 521 683 521 683 540 673.5 c 128,-1,52
 559 664 559 664 574 648 c 128,-1,53
 589 632 589 632 597.5 610.5 c 128,-1,54
 606 589 606 589 606 566 c 0,55,56
 606 547 606 547 597.5 528 c 128,-1,57
 589 509 589 509 574 494 c 128,-1,58
 559 479 559 479 540 469.5 c 128,-1,59
 521 460 521 460 500 460 c 256,40,41
EndSplineSet
Validated: 1
EndChar

StartChar: grave
Encoding: 96 96 66
Width: 1000
GlyphClass: 2
LayerCount: 2
Fore
SplineSet
369 88 m 1,0,-1
 800 537 l 1,1,-1
 867 473 l 1,2,-1
 369 -30 l 1,3,-1
 145 200 l 1,4,-1
 198 256 l 1,5,-1
 369 88 l 1,0,-1
EndSplineSet
Validated: 1
EndChar

StartChar: d
Encoding: 100 100 67
Width: 1000
GlyphClass: 2
LayerCount: 2
Fore
SplineSet
853 455 m 2,0,-1
 784 386 l 1,1,-1
 642 528 l 1,2,-1
 711 596 l 2,3,4
 723 608 723 608 736 608 c 0,5,6
 737 608 737 608 744.5 607.5 c 128,-1,7
 752 607 752 607 764 596 c 2,8,-1
 853 508 l 2,9,10
 864 497 864 497 864.5 489 c 128,-1,11
 865 481 865 481 865 481 c 2,12,13
 865 467 865 467 853 455 c 2,0,-1
185 70 m 1,14,-1
 602 487 l 1,15,-1
 743 346 l 1,16,-1
 327 -72 l 1,17,-1
 185 -72 l 1,18,-1
 185 70 l 1,14,-1
EndSplineSet
Validated: 1
EndChar

StartChar: e
Encoding: 101 101 68
Width: 1000
GlyphClass: 2
LayerCount: 2
Fore
SplineSet
900 201 m 1,0,-1
 291 201 l 1,1,-1
 571 -80 l 1,2,-1
 500 -150 l 1,3,-1
 100 250 l 1,4,-1
 500 650 l 1,5,-1
 570 580 l 1,6,-1
 291 300 l 1,7,-1
 900 300 l 1,8,-1
 900 201 l 1,0,-1
EndSplineSet
Validated: 1
EndChar

StartChar: g
Encoding: 103 103 69
Width: 1000
GlyphClass: 2
LayerCount: 2
Fore
SplineSet
500 -150 m 1,0,-1
 430 -80 l 1,1,-1
 709 200 l 1,2,-1
 100 200 l 1,3,-1
 100 300 l 1,4,-1
 709 300 l 1,5,-1
 430 580 l 1,6,-1
 500 650 l 1,7,-1
 900 250 l 1,8,-1
 500 -150 l 1,0,-1
EndSplineSet
Validated: 1
EndChar

StartChar: h
Encoding: 104 104 70
Width: 1000
GlyphClass: 2
LayerCount: 2
Fore
SplineSet
900 250 m 1,0,-1
 830 180 l 1,1,-1
 550 459 l 1,2,-1
 550 -150 l 1,3,-1
 450 -150 l 1,4,-1
 450 459 l 1,5,-1
 171 179 l 1,6,-1
 100 250 l 1,7,-1
 500 650 l 1,8,-1
 900 250 l 1,0,-1
EndSplineSet
Validated: 1
EndChar

StartChar: i
Encoding: 105 105 71
Width: 1000
GlyphClass: 2
LayerCount: 2
Fore
SplineSet
250 128 m 1,0,-1
 500 400 l 1,1,-1
 750 128 l 1,2,-1
 250 128 l 1,0,-1
EndSplineSet
Validated: 1
EndChar

StartChar: j
Encoding: 106 106 72
Width: 1000
GlyphClass: 2
LayerCount: 2
Fore
SplineSet
250 400 m 1,0,-1
 750 400 l 1,1,-1
 500 128 l 1,2,-1
 250 400 l 1,0,-1
EndSplineSet
Validated: 1
EndChar

StartChar: k
Encoding: 107 107 73
Width: 1000
GlyphClass: 2
LayerCount: 2
Fore
SplineSet
863 -39 m 1,0,-1
 789 -112 l 1,1,-1
 500 177 l 1,2,-1
 211 -112 l 1,3,-1
 138 -39 l 1,4,-1
 427 250 l 1,5,-1
 138 539 l 1,6,-1
 211 613 l 1,7,-1
 500 323 l 1,8,-1
 789 613 l 1,9,-1
 863 539 l 1,10,-1
 573 250 l 1,11,-1
 863 -39 l 1,0,-1
EndSplineSet
Validated: 1
EndChar

StartChar: l
Encoding: 108 108 74
Width: 1000
GlyphClass: 2
LayerCount: 2
Fore
SplineSet
369 88 m 1,0,-1
 800 537 l 1,1,-1
 867 473 l 1,2,-1
 369 -30 l 1,3,-1
 145 200 l 1,4,-1
 198 256 l 1,5,-1
 369 88 l 1,0,-1
EndSplineSet
Validated: 1
EndChar

StartChar: m
Encoding: 109 109 75
Width: 1000
GlyphClass: 2
LayerCount: 2
Fore
SplineSet
415 409 m 1,0,-1
 478 472 l 1,1,-1
 700 250 l 1,2,-1
 478 28 l 1,3,-1
 415 91 l 1,4,-1
 530 205 l 1,5,-1
 100 205 l 1,6,-1
 100 295 l 1,7,-1
 530 295 l 1,8,-1
 415 409 l 1,0,-1
811 -150 m 2,9,-1
 189 -150 l 2,10,11
 151 -150 151 -150 125.5 -124 c 128,-1,12
 100 -98 100 -98 100 -61 c 2,13,-1
 100 116 l 1,14,-1
 189 116 l 1,15,-1
 189 -61 l 1,16,-1
 811 -61 l 1,17,-1
 811 561 l 1,18,-1
 189 561 l 1,19,-1
 189 384 l 1,20,-1
 100 384 l 1,21,-1
 100 561 l 2,22,23
 100 598 100 598 125.5 624 c 128,-1,24
 151 650 151 650 189 650 c 2,25,-1
 811 650 l 2,26,27
 848 650 848 650 874 624 c 128,-1,28
 900 598 900 598 900 561 c 2,29,-1
 900 -61 l 2,30,31
 900 -98 900 -98 874 -124 c 128,-1,32
 848 -150 848 -150 811 -150 c 2,9,-1
EndSplineSet
Validated: 1
EndChar

StartChar: n
Encoding: 110 110 76
Width: 1000
GlyphClass: 2
LayerCount: 2
Fore
SplineSet
214 364 m 1,0,-1
 100 364 l 1,1,-1
 100 650 l 1,2,-1
 386 650 l 1,3,-1
 386 536 l 1,4,-1
 214 536 l 1,5,-1
 214 364 l 1,0,-1
100 136 m 1,6,-1
 214 136 l 1,7,-1
 214 -36 l 1,8,-1
 386 -36 l 1,9,-1
 386 -150 l 1,10,-1
 100 -150 l 1,11,-1
 100 136 l 1,6,-1
786 536 m 1,12,-1
 614 536 l 1,13,-1
 614 650 l 1,14,-1
 900 650 l 1,15,-1
 900 364 l 1,16,-1
 786 364 l 1,17,-1
 786 536 l 1,12,-1
614 -150 m 1,18,-1
 614 -36 l 1,19,-1
 786 -36 l 1,20,-1
 786 136 l 1,21,-1
 900 136 l 1,22,-1
 900 -150 l 1,23,-1
 614 -150 l 1,18,-1
EndSplineSet
Validated: 1
EndChar

StartChar: o
Encoding: 111 111 77
Width: 1000
GlyphClass: 2
LayerCount: 2
Fore
SplineSet
510 112 m 0,0,1
 423 112 423 112 356.5 138 c 128,-1,2
 290 164 290 164 237 218 c 1,3,-1
 100 73 l 1,4,-1
 100 427 l 1,5,-1
 443 427 l 1,6,-1
 305 282 l 1,7,8
 386 218 386 218 510 218 c 0,9,10
 561 218 561 218 607.5 233 c 128,-1,11
 654 248 654 248 692.5 275.5 c 128,-1,12
 731 303 731 303 760.5 341.5 c 128,-1,13
 790 380 790 380 808 427 c 1,14,-1
 913 395 l 1,15,16
 888 336 888 336 847.5 284.5 c 128,-1,17
 807 233 807 233 754.5 194.5 c 128,-1,18
 702 156 702 156 640 134 c 128,-1,19
 578 112 578 112 510 112 c 0,0,1
EndSplineSet
Validated: 1
EndChar

StartChar: p
Encoding: 112 112 78
Width: 1000
GlyphClass: 2
LayerCount: 2
Fore
SplineSet
800 -150 m 2,0,-1
 200 -150 l 2,1,2
 158 -150 158 -150 129 -121 c 128,-1,3
 100 -92 100 -92 100 -50 c 2,4,-1
 100 550 l 2,5,6
 100 592 100 592 129 621 c 128,-1,7
 158 650 158 650 200 650 c 2,8,-1
 800 650 l 2,9,10
 842 650 842 650 871 621 c 128,-1,11
 900 592 900 592 900 550 c 2,12,-1
 900 -50 l 2,13,14
 900 -92 900 -92 871 -121 c 128,-1,15
 842 -150 842 -150 800 -150 c 2,0,-1
800 550 m 1,16,-1
 200 550 l 1,17,-1
 200 -50 l 1,18,-1
 800 -50 l 1,19,-1
 800 550 l 1,16,-1
EndSplineSet
Validated: 1
EndChar

StartChar: q
Encoding: 113 113 79
Width: 1000
GlyphClass: 2
LayerCount: 2
Fore
SplineSet
783 -32 m 1,0,1
 728 -87 728 -87 655.5 -118.5 c 128,-1,2
 583 -150 583 -150 499 -150 c 0,3,4
 416 -150 416 -150 343.5 -118.5 c 128,-1,5
 271 -87 271 -87 217 -33 c 128,-1,6
 163 21 163 21 131.5 94 c 128,-1,7
 100 167 100 167 100 250 c 256,8,9
 100 333 100 333 131.5 406 c 128,-1,10
 163 479 163 479 217 533 c 128,-1,11
 271 587 271 587 343.5 618.5 c 128,-1,12
 416 650 416 650 499 650 c 0,13,14
 569 650 569 650 632 627.5 c 128,-1,15
 695 605 695 605 746 565 c 128,-1,16
 797 525 797 525 833.5 470 c 128,-1,17
 870 415 870 415 887 350 c 1,18,-1
 783 350 l 1,19,20
 767 394 767 394 739 430.5 c 128,-1,21
 711 467 711 467 674 493.5 c 128,-1,22
 637 520 637 520 592.5 535 c 128,-1,23
 548 550 548 550 499 550 c 0,24,25
 437 550 437 550 382.5 526.5 c 128,-1,26
 328 503 328 503 287 462.5 c 128,-1,27
 246 422 246 422 222.5 367 c 128,-1,28
 199 312 199 312 199 250 c 256,29,30
 199 188 199 188 222.5 133 c 128,-1,31
 246 78 246 78 287 37.5 c 128,-1,32
 328 -3 328 -3 382.5 -26.5 c 128,-1,33
 437 -50 437 -50 499 -50 c 0,34,35
 562 -50 562 -50 616 -26.5 c 128,-1,36
 670 -3 670 -3 711 39 c 1,37,-1
 550 200 l 1,38,-1
 900 200 l 1,39,-1
 900 -150 l 1,40,-1
 783 -32 l 1,0,1
EndSplineSet
Validated: 1
EndChar

StartChar: r
Encoding: 114 114 80
Width: 1000
GlyphClass: 2
LayerCount: 2
Fore
SplineSet
804 289 m 1,0,1
 807 270 807 270 807 250 c 0,2,3
 807 231 807 231 804 211 c 1,4,-1
 890 144 l 2,5,6
 896 140 896 140 897.5 133 c 128,-1,7
 899 126 899 126 895 119 c 2,8,-1
 813 -20 l 2,9,10
 809 -26 809 -26 802.5 -28.5 c 128,-1,11
 796 -31 796 -31 789 -28 c 2,12,-1
 687 12 l 1,13,14
 656 -11 656 -11 618 -28 c 1,15,-1
 602 -133 l 2,16,17
 599 -150 599 -150 582 -150 c 2,18,-1
 418 -150 l 2,19,20
 410 -150 410 -150 404.5 -145.5 c 128,-1,21
 399 -141 399 -141 399 -133 c 2,22,-1
 383 -28 l 1,23,24
 345 -11 345 -11 313 12 c 1,25,-1
 212 -28 l 2,26,27
 196 -34 196 -34 187 -20 c 2,28,-1
 105 120 l 2,29,30
 101 126 101 126 103 132.5 c 128,-1,31
 105 139 105 139 110 144 c 2,32,-1
 197 211 l 1,33,34
 195 221 195 221 194 230.5 c 128,-1,35
 193 240 193 240 193 250 c 0,36,37
 193 261 193 261 194 270 c 128,-1,38
 195 279 195 279 197 289 c 1,39,-1
 110 356 l 2,40,41
 105 361 105 361 103 367.5 c 128,-1,42
 101 374 101 374 105 381 c 2,43,-1
 187 520 l 2,44,45
 191 526 191 526 198 528.5 c 128,-1,46
 205 531 205 531 212 528 c 2,47,-1
 313 488 l 1,48,49
 345 511 345 511 383 528 c 1,50,-1
 399 633 l 2,51,52
 399 641 399 641 404.5 645.5 c 128,-1,53
 410 650 410 650 418 650 c 2,54,-1
 582 650 l 2,55,56
 599 650 599 650 602 633 c 2,57,-1
 618 528 l 1,58,59
 656 511 656 511 687 488 c 1,60,-1
 789 528 l 2,61,62
 796 531 796 531 802.5 528.5 c 128,-1,63
 809 526 809 526 813 520 c 2,64,-1
 895 381 l 2,65,66
 899 374 899 374 897.5 367 c 128,-1,67
 896 360 896 360 890 356 c 2,68,-1
 804 289 l 1,0,1
500 390 m 256,69,70
 470 390 470 390 444 379 c 128,-1,71
 418 368 418 368 398.5 349 c 128,-1,72
 379 330 379 330 368 304.5 c 128,-1,73
 357 279 357 279 357 250 c 256,74,75
 357 221 357 221 368 195.5 c 128,-1,76
 379 170 379 170 398.5 151 c 128,-1,77
 418 132 418 132 444 121 c 128,-1,78
 470 110 470 110 500 110 c 256,79,80
 530 110 530 110 556 121 c 128,-1,81
 582 132 582 132 601.5 151 c 128,-1,82
 621 170 621 170 632 195.5 c 128,-1,83
 643 221 643 221 643 250 c 256,84,85
 643 279 643 279 632 304.5 c 128,-1,86
 621 330 621 330 601.5 349 c 128,-1,87
 582 368 582 368 556 379 c 128,-1,88
 530 390 530 390 500 390 c 256,69,70
EndSplineSet
Validated: 1
EndChar

StartChar: t
Encoding: 116 116 81
Width: 1000
GlyphClass: 2
LayerCount: 2
Fore
SplineSet
500 40 m 256,0,1
 521 40 521 40 540 31 c 128,-1,2
 559 22 559 22 574 6.5 c 128,-1,3
 589 -9 589 -9 597.5 -28 c 128,-1,4
 606 -47 606 -47 606 -66 c 0,5,6
 606 -89 606 -89 597.5 -110 c 128,-1,7
 589 -131 589 -131 574 -146.5 c 128,-1,8
 559 -162 559 -162 540 -171.5 c 128,-1,9
 521 -181 521 -181 500 -181 c 256,10,11
 479 -181 479 -181 460 -171.5 c 128,-1,12
 441 -162 441 -162 426 -146.5 c 128,-1,13
 411 -131 411 -131 402.5 -110 c 128,-1,14
 394 -89 394 -89 394 -66 c 0,15,16
 394 -47 394 -47 402.5 -28 c 128,-1,17
 411 -9 411 -9 426 6.5 c 128,-1,18
 441 22 441 22 460 31 c 128,-1,19
 479 40 479 40 500 40 c 256,0,1
500 144 m 256,20,21
 479 144 479 144 460 152.5 c 128,-1,22
 441 161 441 161 426 176 c 128,-1,23
 411 191 411 191 402.5 210 c 128,-1,24
 394 229 394 229 394 250 c 256,25,26
 394 271 394 271 402.5 290 c 128,-1,27
 411 309 411 309 426 324 c 128,-1,28
 441 339 441 339 460 347.5 c 128,-1,29
 479 356 479 356 500 356 c 256,30,31
 521 356 521 356 540 347.5 c 128,-1,32
 559 339 559 339 574 324 c 128,-1,33
 589 309 589 309 597.5 290 c 128,-1,34
 606 271 606 271 606 250 c 256,35,36
 606 229 606 229 597.5 210 c 128,-1,37
 589 191 589 191 574 176 c 128,-1,38
 559 161 559 161 540 152.5 c 128,-1,39
 521 144 521 144 500 144 c 256,20,21
500 460 m 256,40,41
 479 460 479 460 460 469.5 c 128,-1,42
 441 479 441 479 426 494 c 128,-1,43
 411 509 411 509 402.5 528 c 128,-1,44
 394 547 394 547 394 566 c 0,45,46
 394 589 394 589 402.5 610.5 c 128,-1,47
 411 632 411 632 426 648 c 128,-1,48
 441 664 441 664 460 673.5 c 128,-1,49
 479 683 479 683 500 683 c 256,50,51
 521 683 521 683 540 673.5 c 128,-1,52
 559 664 559 664 574 648 c 128,-1,53
 589 632 589 632 597.5 610.5 c 128,-1,54
 606 589 606 589 606 566 c 0,55,56
 606 547 606 547 597.5 528 c 128,-1,57
 589 509 589 509 574 494 c 128,-1,58
 559 479 559 479 540 469.5 c 128,-1,59
 521 460 521 460 500 460 c 256,40,41
EndSplineSet
Validated: 1
EndChar

StartChar: u
Encoding: 117 117 82
Width: 1000
GlyphClass: 2
LayerCount: 2
Fore
SplineSet
127 594 m 1,0,-1
 898 594 l 1,1,-1
 898 482 l 1,2,-1
 127 482 l 1,3,-1
 127 594 l 1,0,-1
127 308 m 1,4,-1
 898 308 l 1,5,-1
 898 192 l 1,6,-1
 127 192 l 1,7,-1
 127 308 l 1,4,-1
127 -94 m 1,8,-1
 127 18 l 1,9,-1
 898 18 l 1,10,-1
 898 -94 l 1,11,-1
 127 -94 l 1,8,-1
EndSplineSet
Validated: 1
EndChar

StartChar: v
Encoding: 118 118 83
Width: 1000
GlyphClass: 2
LayerCount: 2
Fore
SplineSet
501 -72 m 1,0,-1
 501 -192 l 1,1,-1
 341 -31 l 1,2,-1
 501 129 l 1,3,-1
 501 10 l 1,4,5
 551 10 551 10 594.5 29 c 128,-1,6
 638 48 638 48 670.5 80.5 c 128,-1,7
 703 113 703 113 721.5 156.5 c 128,-1,8
 740 200 740 200 740 250 c 0,9,10
 740 314 740 314 714 363 c 1,11,-1
 772 421 l 1,12,13
 796 384 796 384 810 340 c 128,-1,14
 824 296 824 296 824 250 c 0,15,16
 824 183 824 183 798.5 124.5 c 128,-1,17
 773 66 773 66 729 22.5 c 128,-1,18
 685 -21 685 -21 626.5 -46.5 c 128,-1,19
 568 -72 568 -72 501 -72 c 1,0,-1
501 490 m 1,20,21
 451 490 451 490 407 471 c 128,-1,22
 363 452 363 452 330.5 419.5 c 128,-1,23
 298 387 298 387 279.5 343.5 c 128,-1,24
 261 300 261 300 261 250 c 0,25,26
 261 219 261 219 268 191 c 128,-1,27
 275 163 275 163 288 137 c 1,28,-1
 229 79 l 1,29,30
 205 116 205 116 192.5 160 c 128,-1,31
 180 204 180 204 180 250 c 0,32,33
 180 317 180 317 205 375.5 c 128,-1,34
 230 434 230 434 273.5 477.5 c 128,-1,35
 317 521 317 521 375.5 546.5 c 128,-1,36
 434 572 434 572 501 572 c 1,37,-1
 501 692 l 1,38,-1
 660 531 l 1,39,-1
 501 371 l 1,40,-1
 501 490 l 1,20,21
EndSplineSet
Validated: 1
EndChar

StartChar: w
Encoding: 119 119 84
Width: 1000
GlyphClass: 2
LayerCount: 2
Fore
SplineSet
176 650 m 1,0,-1
 251 520 l 1,1,-1
 194 520 l 1,2,3
 194 487 194 487 193.5 444.5 c 128,-1,4
 193 402 193 402 193 355.5 c 128,-1,5
 193 309 193 309 193 260.5 c 128,-1,6
 193 212 193 212 193 166 c 0,7,8
 193 59 193 59 194 -56 c 1,9,-1
 271 -56 l 1,10,-1
 271 391 l 1,11,-1
 343 391 l 1,12,-1
 343 -56 l 1,13,-1
 418 -56 l 1,14,-1
 418 70 l 1,15,-1
 490 70 l 1,16,-1
 490 -56 l 1,17,-1
 564 -56 l 1,18,-1
 564 253 l 1,19,-1
 635 253 l 1,20,-1
 635 -56 l 1,21,-1
 770 -56 l 1,22,-1
 770 1 l 1,23,-1
 900 -74 l 1,24,-1
 770 -150 l 1,25,-1
 770 -93 l 1,26,-1
 157 -93 l 1,27,-1
 157 520 l 1,28,-1
 100 520 l 1,29,-1
 176 650 l 1,0,-1
EndSplineSet
Validated: 1
EndChar

StartChar: x
Encoding: 120 120 85
Width: 1000
GlyphClass: 2
LayerCount: 2
Fore
SplineSet
250 650 m 1,0,-1
 326 520 l 1,1,-1
 269 520 l 1,2,-1
 269 -56 l 1,3,-1
 845 -56 l 1,4,-1
 845 1 l 1,5,-1
 975 -75 l 1,6,-1
 845 -150 l 1,7,-1
 845 -93 l 1,8,-1
 232 -93 l 1,9,-1
 232 520 l 1,10,-1
 175 520 l 1,11,-1
 250 650 l 1,0,-1
688 532 m 0,12,13
 708 532 708 532 722.5 517.5 c 128,-1,14
 737 503 737 503 737 483 c 0,15,16
 737 462 737 462 722.5 447.5 c 128,-1,17
 708 433 708 433 688 433 c 0,18,19
 667 433 667 433 652 447.5 c 128,-1,20
 637 462 637 462 637 483 c 0,21,22
 637 503 637 503 652 517.5 c 128,-1,23
 667 532 667 532 688 532 c 0,12,13
497 486 m 256,24,25
 518 486 518 486 532 471.5 c 128,-1,26
 546 457 546 457 546 436 c 256,27,28
 546 415 546 415 532 400.5 c 128,-1,29
 518 386 518 386 497 386 c 256,30,31
 476 386 476 386 461.5 400.5 c 128,-1,32
 447 415 447 415 447 436 c 256,33,34
 447 457 447 457 461.5 471.5 c 128,-1,35
 476 486 476 486 497 486 c 256,24,25
623 302 m 0,36,37
 644 302 644 302 658.5 287.5 c 128,-1,38
 673 273 673 273 673 252 c 256,39,40
 673 231 673 231 658.5 216.5 c 128,-1,41
 644 202 644 202 623 202 c 0,42,43
 603 202 603 202 588 216.5 c 128,-1,44
 573 231 573 231 573 252 c 256,45,46
 573 273 573 273 588 287.5 c 128,-1,47
 603 302 603 302 623 302 c 0,36,37
426 250 m 0,48,49
 446 250 446 250 461 235.5 c 128,-1,50
 476 221 476 221 476 200 c 256,51,52
 476 179 476 179 461 164.5 c 128,-1,53
 446 150 446 150 426 150 c 0,54,55
 405 150 405 150 390.5 164.5 c 128,-1,56
 376 179 376 179 376 200 c 256,57,58
 376 221 376 221 390.5 235.5 c 128,-1,59
 405 250 405 250 426 250 c 0,48,49
785 202 m 0,60,61
 806 202 806 202 821 187.5 c 128,-1,62
 836 173 836 173 836 152 c 0,63,64
 836 132 836 132 821 117.5 c 128,-1,65
 806 103 806 103 785 103 c 0,66,67
 765 103 765 103 750.5 117.5 c 128,-1,68
 736 132 736 132 736 152 c 0,69,70
 736 173 736 173 750.5 187.5 c 128,-1,71
 765 202 765 202 785 202 c 0,60,61
557 132 m 256,72,73
 578 132 578 132 592.5 117 c 128,-1,74
 607 102 607 102 607 81 c 0,75,76
 607 61 607 61 592.5 46.5 c 128,-1,77
 578 32 578 32 557 32 c 256,78,79
 536 32 536 32 521.5 46.5 c 128,-1,80
 507 61 507 61 507 81 c 0,81,82
 507 102 507 102 521.5 117 c 128,-1,83
 536 132 536 132 557 132 c 256,72,73
372 100 m 0,84,85
 393 100 393 100 407.5 85 c 128,-1,86
 422 70 422 70 422 50 c 0,87,88
 422 29 422 29 407.5 14.5 c 128,-1,89
 393 0 393 0 372 0 c 0,90,91
 352 0 352 0 337 14.5 c 128,-1,92
 322 29 322 29 322 50 c 0,93,94
 322 70 322 70 337 85 c 128,-1,95
 352 100 352 100 372 100 c 0,84,85
EndSplineSet
Validated: 1
EndChar

StartChar: y
Encoding: 121 121 86
Width: 1000
GlyphClass: 2
LayerCount: 2
Fore
SplineSet
176 650 m 1,0,-1
 251 520 l 1,1,-1
 194 520 l 1,2,-1
 194 -31 l 1,3,-1
 323 248 l 1,4,-1
 442 116 l 1,5,-1
 552 339 l 1,6,-1
 648 393 l 1,7,-1
 633 420 l 1,8,-1
 716 420 l 1,9,-1
 674 348 l 1,10,-1
 658 376 l 1,11,-1
 568 324 l 1,12,-1
 447 80 l 1,13,-1
 329 211 l 1,14,-1
 206 -56 l 1,15,-1
 770 -56 l 1,16,-1
 770 1 l 1,17,-1
 900 -74 l 1,18,-1
 770 -150 l 1,19,-1
 770 -93 l 1,20,-1
 157 -93 l 1,21,-1
 157 520 l 1,22,-1
 100 520 l 1,23,-1
 176 650 l 1,0,-1
EndSplineSet
Validated: 1
EndChar

StartChar: z
Encoding: 122 122 87
Width: 1000
GlyphClass: 2
LayerCount: 2
Fore
SplineSet
770 -56 m 1,0,-1
 770 1 l 1,1,-1
 900 -74 l 1,2,-1
 770 -150 l 1,3,-1
 770 -93 l 1,4,-1
 157 -93 l 1,5,-1
 157 520 l 1,6,-1
 100 520 l 1,7,-1
 176 650 l 1,8,-1
 251 520 l 1,9,-1
 194 520 l 1,10,-1
 194 -31 l 1,11,-1
 323 248 l 1,12,-1
 442 116 l 1,13,-1
 545 340 l 2,14,15
 547 342 547 342 568.5 354.5 c 128,-1,16
 590 367 590 367 615 382 c 0,17,18
 645 399 645 399 681 420 c 1,19,-1
 709 -56 l 1,20,-1
 770 -56 l 1,0,-1
EndSplineSet
Validated: 1
EndChar

StartChar: braceleft
Encoding: 123 123 88
Width: 1000
GlyphClass: 2
LayerCount: 2
Fore
SplineSet
900 250 m 1,0,-1
 830 180 l 1,1,-1
 550 459 l 1,2,-1
 550 -150 l 1,3,-1
 450 -150 l 1,4,-1
 450 459 l 1,5,-1
 171 179 l 1,6,-1
 100 250 l 1,7,-1
 500 650 l 1,8,-1
 900 250 l 1,0,-1
EndSplineSet
Validated: 1
EndChar

StartChar: bar
Encoding: 124 124 89
Width: 1000
GlyphClass: 2
LayerCount: 2
Fore
SplineSet
250 128 m 1,0,-1
 500 400 l 1,1,-1
 750 128 l 1,2,-1
 250 128 l 1,0,-1
EndSplineSet
Validated: 1
EndChar

StartChar: braceright
Encoding: 125 125 90
Width: 1000
GlyphClass: 2
LayerCount: 2
Fore
SplineSet
250 400 m 1,0,-1
 750 400 l 1,1,-1
 500 128 l 1,2,-1
 250 400 l 1,0,-1
EndSplineSet
Validated: 1
EndChar

StartChar: asciitilde
Encoding: 126 126 91
Width: 1000
GlyphClass: 2
LayerCount: 2
Fore
SplineSet
781 556 m 2,0,-1
 806 529 l 2,1,2
 823 511 823 511 823 487 c 128,-1,3
 823 463 823 463 805 448 c 2,4,-1
 544 238 l 1,5,-1
 608 169 l 2,6,7
 626 151 626 151 626 125 c 2,8,9
 626 125 626 125 625.5 111.5 c 128,-1,10
 625 98 625 98 606 80 c 2,11,-1
 581 56 l 1,12,-1
 298 351 l 1,13,-1
 323 375 l 2,14,15
 341 393 341 393 366 393 c 0,16,17
 367 393 367 393 380 392.5 c 128,-1,18
 393 392 393 392 412 373 c 2,19,-1
 468 317 l 1,20,-1
 700 558 l 2,21,22
 716 574 716 574 739 574 c 0,23,24
 740 574 740 574 752 573.5 c 128,-1,25
 764 573 764 573 781 556 c 2,0,-1
281 332 m 1,26,-1
 561 40 l 2,27,28
 559 38 559 38 531 -6 c 128,-1,29
 503 -50 503 -50 473.5 -75.5 c 128,-1,30
 444 -101 444 -101 401 -113 c 1,31,32
 391 -103 391 -103 348.5 -64.5 c 128,-1,33
 306 -26 306 -26 291.5 -12 c 128,-1,34
 277 2 277 2 242.5 36 c 128,-1,35
 208 70 208 70 189 91.5 c 128,-1,36
 170 113 170 113 144.5 144 c 128,-1,37
 119 175 119 175 99 204 c 1,38,39
 115 213 115 213 146 227 c 128,-1,40
 177 241 177 241 196 251 c 128,-1,41
 215 261 215 261 239.5 282.5 c 128,-1,42
 264 304 264 304 281 332 c 1,26,-1
EndSplineSet
Validated: 1
EndChar

StartChar: circumflex
Encoding: 710 710 92
Width: 1000
GlyphClass: 2
Flags: W
LayerCount: 2
Fore
SplineSet
415 409 m 1,0,-1
 478 472 l 1,1,-1
 700 250 l 1,2,-1
 478 28 l 1,3,-1
 415 91 l 1,4,-1
 530 205 l 1,5,-1
 100 205 l 1,6,-1
 100 295 l 1,7,-1
 530 295 l 1,8,-1
 415 409 l 1,0,-1
811 -150 m 2,9,-1
 189 -150 l 2,10,11
 151 -150 151 -150 125.5 -124 c 128,-1,12
 100 -98 100 -98 100 -61 c 2,13,-1
 100 116 l 1,14,-1
 189 116 l 1,15,-1
 189 -61 l 1,16,-1
 811 -61 l 1,17,-1
 811 561 l 1,18,-1
 189 561 l 1,19,-1
 189 384 l 1,20,-1
 100 384 l 1,21,-1
 100 561 l 2,22,23
 100 598 100 598 125.5 624 c 128,-1,24
 151 650 151 650 189 650 c 2,25,-1
 811 650 l 2,26,27
 848 650 848 650 874 624 c 128,-1,28
 900 598 900 598 900 561 c 2,29,-1
 900 -61 l 2,30,31
 900 -98 900 -98 874 -124 c 128,-1,32
 848 -150 848 -150 811 -150 c 2,9,-1
EndSplineSet
Validated: 1
EndChar

StartChar: caron
Encoding: 711 711 93
Width: 1000
GlyphClass: 2
Flags: W
LayerCount: 2
Fore
SplineSet
250 400 m 1,0,-1
 750 400 l 1,1,-1
 500 128 l 1,2,-1
 250 400 l 1,0,-1
EndSplineSet
Validated: 1
EndChar

StartChar: breve
Encoding: 728 728 94
Width: 1000
GlyphClass: 2
Flags: W
LayerCount: 2
Fore
SplineSet
900 201 m 1,0,-1
 291 201 l 1,1,-1
 571 -80 l 1,2,-1
 500 -150 l 1,3,-1
 100 250 l 1,4,-1
 500 650 l 1,5,-1
 570 580 l 1,6,-1
 291 300 l 1,7,-1
 900 300 l 1,8,-1
 900 201 l 1,0,-1
EndSplineSet
Validated: 1
EndChar

StartChar: dotaccent
Encoding: 729 729 95
Width: 1000
GlyphClass: 2
Flags: W
LayerCount: 2
Fore
SplineSet
900 250 m 1,0,-1
 830 180 l 1,1,-1
 550 459 l 1,2,-1
 550 -150 l 1,3,-1
 450 -150 l 1,4,-1
 450 459 l 1,5,-1
 171 179 l 1,6,-1
 100 250 l 1,7,-1
 500 650 l 1,8,-1
 900 250 l 1,0,-1
EndSplineSet
Validated: 1
EndChar

StartChar: ring
Encoding: 730 730 96
Width: 1000
GlyphClass: 2
Flags: W
LayerCount: 2
Fore
SplineSet
500 -150 m 1,0,-1
 430 -80 l 1,1,-1
 709 200 l 1,2,-1
 100 200 l 1,3,-1
 100 300 l 1,4,-1
 709 300 l 1,5,-1
 430 580 l 1,6,-1
 500 650 l 1,7,-1
 900 250 l 1,8,-1
 500 -150 l 1,0,-1
EndSplineSet
Validated: 1
EndChar

StartChar: ogonek
Encoding: 731 731 97
Width: 1000
GlyphClass: 2
Flags: W
LayerCount: 2
Fore
SplineSet
250 128 m 1,0,-1
 500 400 l 1,1,-1
 750 128 l 1,2,-1
 250 128 l 1,0,-1
EndSplineSet
Validated: 1
EndChar

StartChar: tilde
Encoding: 732 732 98
Width: 1000
GlyphClass: 2
Flags: W
LayerCount: 2
Fore
SplineSet
510 112 m 0,0,1
 423 112 423 112 356.5 138 c 128,-1,2
 290 164 290 164 237 218 c 1,3,-1
 100 73 l 1,4,-1
 100 427 l 1,5,-1
 443 427 l 1,6,-1
 305 282 l 1,7,8
 386 218 386 218 510 218 c 0,9,10
 561 218 561 218 607.5 233 c 128,-1,11
 654 248 654 248 692.5 275.5 c 128,-1,12
 731 303 731 303 760.5 341.5 c 128,-1,13
 790 380 790 380 808 427 c 1,14,-1
 913 395 l 1,15,16
 888 336 888 336 847.5 284.5 c 128,-1,17
 807 233 807 233 754.5 194.5 c 128,-1,18
 702 156 702 156 640 134 c 128,-1,19
 578 112 578 112 510 112 c 0,0,1
EndSplineSet
Validated: 1
EndChar

StartChar: hungarumlaut
Encoding: 733 733 99
Width: 1000
GlyphClass: 2
Flags: W
LayerCount: 2
Fore
SplineSet
900 250 m 1,0,-1
 830 180 l 1,1,-1
 550 459 l 1,2,-1
 550 -150 l 1,3,-1
 450 -150 l 1,4,-1
 450 459 l 1,5,-1
 171 179 l 1,6,-1
 100 250 l 1,7,-1
 500 650 l 1,8,-1
 900 250 l 1,0,-1
EndSplineSet
Validated: 1
EndChar

StartChar: uni03BC
Encoding: 956 956 100
Width: 1000
GlyphClass: 2
Flags: W
LayerCount: 2
Fore
SplineSet
770 -56 m 1,0,-1
 770 1 l 1,1,-1
 900 -74 l 1,2,-1
 770 -150 l 1,3,-1
 770 -93 l 1,4,-1
 157 -93 l 1,5,-1
 157 520 l 1,6,-1
 100 520 l 1,7,-1
 176 650 l 1,8,-1
 251 520 l 1,9,-1
 194 520 l 1,10,-1
 194 -31 l 1,11,-1
 323 248 l 1,12,-1
 442 116 l 1,13,-1
 545 340 l 2,14,15
 547 342 547 342 568.5 354.5 c 128,-1,16
 590 367 590 367 615 382 c 0,17,18
 645 399 645 399 681 420 c 1,19,-1
 709 -56 l 1,20,-1
 770 -56 l 1,0,-1
EndSplineSet
Validated: 1
EndChar

StartChar: endash
Encoding: 8211 8211 101
Width: 1000
GlyphClass: 2
Flags: W
LayerCount: 2
Fore
SplineSet
127 594 m 1,0,-1
 898 594 l 1,1,-1
 898 482 l 1,2,-1
 127 482 l 1,3,-1
 127 594 l 1,0,-1
127 308 m 1,4,-1
 898 308 l 1,5,-1
 898 192 l 1,6,-1
 127 192 l 1,7,-1
 127 308 l 1,4,-1
127 -94 m 1,8,-1
 127 18 l 1,9,-1
 898 18 l 1,10,-1
 898 -94 l 1,11,-1
 127 -94 l 1,8,-1
EndSplineSet
Validated: 1
EndChar

StartChar: emdash
Encoding: 8212 8212 102
Width: 1000
GlyphClass: 2
Flags: W
LayerCount: 2
Fore
SplineSet
501 -72 m 1,0,-1
 501 -192 l 1,1,-1
 341 -31 l 1,2,-1
 501 129 l 1,3,-1
 501 10 l 1,4,5
 551 10 551 10 594.5 29 c 128,-1,6
 638 48 638 48 670.5 80.5 c 128,-1,7
 703 113 703 113 721.5 156.5 c 128,-1,8
 740 200 740 200 740 250 c 0,9,10
 740 314 740 314 714 363 c 1,11,-1
 772 421 l 1,12,13
 796 384 796 384 810 340 c 128,-1,14
 824 296 824 296 824 250 c 0,15,16
 824 183 824 183 798.5 124.5 c 128,-1,17
 773 66 773 66 729 22.5 c 128,-1,18
 685 -21 685 -21 626.5 -46.5 c 128,-1,19
 568 -72 568 -72 501 -72 c 1,0,-1
501 490 m 1,20,21
 451 490 451 490 407 471 c 128,-1,22
 363 452 363 452 330.5 419.5 c 128,-1,23
 298 387 298 387 279.5 343.5 c 128,-1,24
 261 300 261 300 261 250 c 0,25,26
 261 219 261 219 268 191 c 128,-1,27
 275 163 275 163 288 137 c 1,28,-1
 229 79 l 1,29,30
 205 116 205 116 192.5 160 c 128,-1,31
 180 204 180 204 180 250 c 0,32,33
 180 317 180 317 205 375.5 c 128,-1,34
 230 434 230 434 273.5 477.5 c 128,-1,35
 317 521 317 521 375.5 546.5 c 128,-1,36
 434 572 434 572 501 572 c 1,37,-1
 501 692 l 1,38,-1
 660 531 l 1,39,-1
 501 371 l 1,40,-1
 501 490 l 1,20,21
EndSplineSet
Validated: 1
EndChar

StartChar: quoteleft
Encoding: 8216 8216 103
Width: 1000
GlyphClass: 2
Flags: W
LayerCount: 2
Fore
SplineSet
415 409 m 1,0,-1
 478 472 l 1,1,-1
 700 250 l 1,2,-1
 478 28 l 1,3,-1
 415 91 l 1,4,-1
 530 205 l 1,5,-1
 100 205 l 1,6,-1
 100 295 l 1,7,-1
 530 295 l 1,8,-1
 415 409 l 1,0,-1
811 -150 m 2,9,-1
 189 -150 l 2,10,11
 151 -150 151 -150 125.5 -124 c 128,-1,12
 100 -98 100 -98 100 -61 c 2,13,-1
 100 116 l 1,14,-1
 189 116 l 1,15,-1
 189 -61 l 1,16,-1
 811 -61 l 1,17,-1
 811 561 l 1,18,-1
 189 561 l 1,19,-1
 189 384 l 1,20,-1
 100 384 l 1,21,-1
 100 561 l 2,22,23
 100 598 100 598 125.5 624 c 128,-1,24
 151 650 151 650 189 650 c 2,25,-1
 811 650 l 2,26,27
 848 650 848 650 874 624 c 128,-1,28
 900 598 900 598 900 561 c 2,29,-1
 900 -61 l 2,30,31
 900 -98 900 -98 874 -124 c 128,-1,32
 848 -150 848 -150 811 -150 c 2,9,-1
EndSplineSet
Validated: 1
EndChar

StartChar: quoteright
Encoding: 8217 8217 104
Width: 1000
GlyphClass: 2
Flags: W
LayerCount: 2
Fore
SplineSet
214 364 m 1,0,-1
 100 364 l 1,1,-1
 100 650 l 1,2,-1
 386 650 l 1,3,-1
 386 536 l 1,4,-1
 214 536 l 1,5,-1
 214 364 l 1,0,-1
100 136 m 1,6,-1
 214 136 l 1,7,-1
 214 -36 l 1,8,-1
 386 -36 l 1,9,-1
 386 -150 l 1,10,-1
 100 -150 l 1,11,-1
 100 136 l 1,6,-1
786 536 m 1,12,-1
 614 536 l 1,13,-1
 614 650 l 1,14,-1
 900 650 l 1,15,-1
 900 364 l 1,16,-1
 786 364 l 1,17,-1
 786 536 l 1,12,-1
614 -150 m 1,18,-1
 614 -36 l 1,19,-1
 786 -36 l 1,20,-1
 786 136 l 1,21,-1
 900 136 l 1,22,-1
 900 -150 l 1,23,-1
 614 -150 l 1,18,-1
EndSplineSet
Validated: 1
EndChar

StartChar: quotesinglbase
Encoding: 8218 8218 105
Width: 1000
GlyphClass: 2
Flags: W
LayerCount: 2
Fore
SplineSet
783 -32 m 1,0,1
 728 -87 728 -87 655.5 -118.5 c 128,-1,2
 583 -150 583 -150 499 -150 c 0,3,4
 416 -150 416 -150 343.5 -118.5 c 128,-1,5
 271 -87 271 -87 217 -33 c 128,-1,6
 163 21 163 21 131.5 94 c 128,-1,7
 100 167 100 167 100 250 c 256,8,9
 100 333 100 333 131.5 406 c 128,-1,10
 163 479 163 479 217 533 c 128,-1,11
 271 587 271 587 343.5 618.5 c 128,-1,12
 416 650 416 650 499 650 c 0,13,14
 569 650 569 650 632 627.5 c 128,-1,15
 695 605 695 605 746 565 c 128,-1,16
 797 525 797 525 833.5 470 c 128,-1,17
 870 415 870 415 887 350 c 1,18,-1
 783 350 l 1,19,20
 767 394 767 394 739 430.5 c 128,-1,21
 711 467 711 467 674 493.5 c 128,-1,22
 637 520 637 520 592.5 535 c 128,-1,23
 548 550 548 550 499 550 c 0,24,25
 437 550 437 550 382.5 526.5 c 128,-1,26
 328 503 328 503 287 462.5 c 128,-1,27
 246 422 246 422 222.5 367 c 128,-1,28
 199 312 199 312 199 250 c 256,29,30
 199 188 199 188 222.5 133 c 128,-1,31
 246 78 246 78 287 37.5 c 128,-1,32
 328 -3 328 -3 382.5 -26.5 c 128,-1,33
 437 -50 437 -50 499 -50 c 0,34,35
 562 -50 562 -50 616 -26.5 c 128,-1,36
 670 -3 670 -3 711 39 c 1,37,-1
 550 200 l 1,38,-1
 900 200 l 1,39,-1
 900 -150 l 1,40,-1
 783 -32 l 1,0,1
EndSplineSet
Validated: 1
EndChar

StartChar: quotedblleft
Encoding: 8220 8220 106
Width: 1000
GlyphClass: 2
Flags: W
LayerCount: 2
Fore
SplineSet
510 112 m 0,0,1
 423 112 423 112 356.5 138 c 128,-1,2
 290 164 290 164 237 218 c 1,3,-1
 100 73 l 1,4,-1
 100 427 l 1,5,-1
 443 427 l 1,6,-1
 305 282 l 1,7,8
 386 218 386 218 510 218 c 0,9,10
 561 218 561 218 607.5 233 c 128,-1,11
 654 248 654 248 692.5 275.5 c 128,-1,12
 731 303 731 303 760.5 341.5 c 128,-1,13
 790 380 790 380 808 427 c 1,14,-1
 913 395 l 1,15,16
 888 336 888 336 847.5 284.5 c 128,-1,17
 807 233 807 233 754.5 194.5 c 128,-1,18
 702 156 702 156 640 134 c 128,-1,19
 578 112 578 112 510 112 c 0,0,1
EndSplineSet
Validated: 1
EndChar

StartChar: quotedblright
Encoding: 8221 8221 107
Width: 1000
GlyphClass: 2
Flags: W
LayerCount: 2
Fore
SplineSet
800 -150 m 2,0,-1
 200 -150 l 2,1,2
 158 -150 158 -150 129 -121 c 128,-1,3
 100 -92 100 -92 100 -50 c 2,4,-1
 100 550 l 2,5,6
 100 592 100 592 129 621 c 128,-1,7
 158 650 158 650 200 650 c 2,8,-1
 800 650 l 2,9,10
 842 650 842 650 871 621 c 128,-1,11
 900 592 900 592 900 550 c 2,12,-1
 900 -50 l 2,13,14
 900 -92 900 -92 871 -121 c 128,-1,15
 842 -150 842 -150 800 -150 c 2,0,-1
800 550 m 1,16,-1
 200 550 l 1,17,-1
 200 -50 l 1,18,-1
 800 -50 l 1,19,-1
 800 550 l 1,16,-1
EndSplineSet
Validated: 1
EndChar

StartChar: quotedblbase
Encoding: 8222 8222 108
Width: 1000
GlyphClass: 2
Flags: W
LayerCount: 2
Fore
SplineSet
804 289 m 1,0,1
 807 270 807 270 807 250 c 0,2,3
 807 231 807 231 804 211 c 1,4,-1
 890 144 l 2,5,6
 896 140 896 140 897.5 133 c 128,-1,7
 899 126 899 126 895 119 c 2,8,-1
 813 -20 l 2,9,10
 809 -26 809 -26 802.5 -28.5 c 128,-1,11
 796 -31 796 -31 789 -28 c 2,12,-1
 687 12 l 1,13,14
 656 -11 656 -11 618 -28 c 1,15,-1
 602 -133 l 2,16,17
 599 -150 599 -150 582 -150 c 2,18,-1
 418 -150 l 2,19,20
 410 -150 410 -150 404.5 -145.5 c 128,-1,21
 399 -141 399 -141 399 -133 c 2,22,-1
 383 -28 l 1,23,24
 345 -11 345 -11 313 12 c 1,25,-1
 212 -28 l 2,26,27
 196 -34 196 -34 187 -20 c 2,28,-1
 105 120 l 2,29,30
 101 126 101 126 103 132.5 c 128,-1,31
 105 139 105 139 110 144 c 2,32,-1
 197 211 l 1,33,34
 195 221 195 221 194 230.5 c 128,-1,35
 193 240 193 240 193 250 c 0,36,37
 193 261 193 261 194 270 c 128,-1,38
 195 279 195 279 197 289 c 1,39,-1
 110 356 l 2,40,41
 105 361 105 361 103 367.5 c 128,-1,42
 101 374 101 374 105 381 c 2,43,-1
 187 520 l 2,44,45
 191 526 191 526 198 528.5 c 128,-1,46
 205 531 205 531 212 528 c 2,47,-1
 313 488 l 1,48,49
 345 511 345 511 383 528 c 1,50,-1
 399 633 l 2,51,52
 399 641 399 641 404.5 645.5 c 128,-1,53
 410 650 410 650 418 650 c 2,54,-1
 582 650 l 2,55,56
 599 650 599 650 602 633 c 2,57,-1
 618 528 l 1,58,59
 656 511 656 511 687 488 c 1,60,-1
 789 528 l 2,61,62
 796 531 796 531 802.5 528.5 c 128,-1,63
 809 526 809 526 813 520 c 2,64,-1
 895 381 l 2,65,66
 899 374 899 374 897.5 367 c 128,-1,67
 896 360 896 360 890 356 c 2,68,-1
 804 289 l 1,0,1
500 390 m 256,69,70
 470 390 470 390 444 379 c 128,-1,71
 418 368 418 368 398.5 349 c 128,-1,72
 379 330 379 330 368 304.5 c 128,-1,73
 357 279 357 279 357 250 c 256,74,75
 357 221 357 221 368 195.5 c 128,-1,76
 379 170 379 170 398.5 151 c 128,-1,77
 418 132 418 132 444 121 c 128,-1,78
 470 110 470 110 500 110 c 256,79,80
 530 110 530 110 556 121 c 128,-1,81
 582 132 582 132 601.5 151 c 128,-1,82
 621 170 621 170 632 195.5 c 128,-1,83
 643 221 643 221 643 250 c 256,84,85
 643 279 643 279 632 304.5 c 128,-1,86
 621 330 621 330 601.5 349 c 128,-1,87
 582 368 582 368 556 379 c 128,-1,88
 530 390 530 390 500 390 c 256,69,70
EndSplineSet
Validated: 1
EndChar

StartChar: dagger
Encoding: 8224 8224 109
Width: 1000
GlyphClass: 2
Flags: W
LayerCount: 2
Fore
SplineSet
176 650 m 1,0,-1
 251 520 l 1,1,-1
 194 520 l 1,2,-1
 194 -31 l 1,3,-1
 323 248 l 1,4,-1
 442 116 l 1,5,-1
 552 339 l 1,6,-1
 648 393 l 1,7,-1
 633 420 l 1,8,-1
 716 420 l 1,9,-1
 674 348 l 1,10,-1
 658 376 l 1,11,-1
 568 324 l 1,12,-1
 447 80 l 1,13,-1
 329 211 l 1,14,-1
 206 -56 l 1,15,-1
 770 -56 l 1,16,-1
 770 1 l 1,17,-1
 900 -74 l 1,18,-1
 770 -150 l 1,19,-1
 770 -93 l 1,20,-1
 157 -93 l 1,21,-1
 157 520 l 1,22,-1
 100 520 l 1,23,-1
 176 650 l 1,0,-1
EndSplineSet
Validated: 1
EndChar

StartChar: daggerdbl
Encoding: 8225 8225 110
Width: 1000
GlyphClass: 2
Flags: W
LayerCount: 2
Fore
SplineSet
770 -56 m 1,0,-1
 770 1 l 1,1,-1
 900 -74 l 1,2,-1
 770 -150 l 1,3,-1
 770 -93 l 1,4,-1
 157 -93 l 1,5,-1
 157 520 l 1,6,-1
 100 520 l 1,7,-1
 176 650 l 1,8,-1
 251 520 l 1,9,-1
 194 520 l 1,10,-1
 194 -31 l 1,11,-1
 323 248 l 1,12,-1
 442 116 l 1,13,-1
 545 340 l 2,14,15
 547 342 547 342 568.5 354.5 c 128,-1,16
 590 367 590 367 615 382 c 0,17,18
 645 399 645 399 681 420 c 1,19,-1
 709 -56 l 1,20,-1
 770 -56 l 1,0,-1
EndSplineSet
Validated: 1
EndChar

StartChar: bullet
Encoding: 8226 8226 111
Width: 1000
GlyphClass: 2
Flags: W
LayerCount: 2
Fore
SplineSet
100 277 m 1,0,1
 150 314 150 314 203 361.5 c 128,-1,2
 256 409 256 409 308.5 462.5 c 128,-1,3
 361 516 361 516 411 574 c 128,-1,4
 461 632 461 632 506 690 c 1,5,6
 571 608 571 608 619.5 549.5 c 128,-1,7
 668 491 668 491 705 450.5 c 128,-1,8
 742 410 742 410 769 383.5 c 128,-1,9
 796 357 796 357 818.5 338.5 c 128,-1,10
 841 320 841 320 860.5 306 c 128,-1,11
 880 292 880 292 900 277 c 1,12,-1
 852 227 l 1,13,14
 846 233 846 233 832 247 c 128,-1,15
 818 261 818 261 802.5 277 c 128,-1,16
 787 293 787 293 773 307 c 128,-1,17
 759 321 759 321 753 327 c 1,18,19
 738 278 738 278 735.5 218 c 128,-1,20
 733 158 733 158 737.5 98.5 c 128,-1,21
 742 39 742 39 748.5 -15.5 c 128,-1,22
 755 -70 755 -70 758 -110 c 1,23,-1
 591 -110 l 1,24,-1
 588 207 l 1,25,26
 563 209 563 209 532 207 c 0,27,28
 515 207 515 207 498 207 c 2,29,-1
 410 207 l 1,30,-1
 410 -110 l 1,31,-1
 243 -110 l 1,32,33
 245 -70 245 -70 252 -15.5 c 128,-1,34
 259 39 259 39 263 98.5 c 128,-1,35
 267 158 267 158 265 218 c 128,-1,36
 263 278 263 278 248 327 c 1,37,38
 242 321 242 321 228 307 c 128,-1,39
 214 293 214 293 198 277 c 128,-1,40
 182 261 182 261 168 247 c 128,-1,41
 154 233 154 233 148 227 c 1,42,-1
 100 277 l 1,0,1
EndSplineSet
Validated: 33
EndChar

StartChar: ellipsis
Encoding: 8230 8230 112
Width: 1000
GlyphClass: 2
Flags: W
LayerCount: 2
Fore
SplineSet
863 -39 m 1,0,-1
 789 -112 l 1,1,-1
 500 177 l 1,2,-1
 211 -112 l 1,3,-1
 138 -39 l 1,4,-1
 427 250 l 1,5,-1
 138 539 l 1,6,-1
 211 613 l 1,7,-1
 500 323 l 1,8,-1
 789 613 l 1,9,-1
 863 539 l 1,10,-1
 573 250 l 1,11,-1
 863 -39 l 1,0,-1
EndSplineSet
Validated: 1
EndChar

StartChar: perthousand
Encoding: 8240 8240 113
Width: 1000
GlyphClass: 2
Flags: W
LayerCount: 2
Fore
SplineSet
176 650 m 1,0,-1
 251 520 l 1,1,-1
 194 520 l 1,2,-1
 194 -31 l 1,3,-1
 323 248 l 1,4,-1
 442 116 l 1,5,-1
 552 339 l 1,6,-1
 648 393 l 1,7,-1
 633 420 l 1,8,-1
 716 420 l 1,9,-1
 674 348 l 1,10,-1
 658 376 l 1,11,-1
 568 324 l 1,12,-1
 447 80 l 1,13,-1
 329 211 l 1,14,-1
 206 -56 l 1,15,-1
 770 -56 l 1,16,-1
 770 1 l 1,17,-1
 900 -74 l 1,18,-1
 770 -150 l 1,19,-1
 770 -93 l 1,20,-1
 157 -93 l 1,21,-1
 157 520 l 1,22,-1
 100 520 l 1,23,-1
 176 650 l 1,0,-1
EndSplineSet
Validated: 1
EndChar

StartChar: guilsinglleft
Encoding: 8249 8249 114
Width: 1000
GlyphClass: 2
Flags: W
LayerCount: 2
Fore
SplineSet
268 431 m 1,0,-1
 735 431 l 1,1,-1
 735 -35 l 2,2,3
 735 -67 735 -67 712 -90 c 128,-1,4
 689 -113 689 -113 657 -113 c 2,5,-1
 346 -113 l 2,6,7
 314 -113 314 -113 291 -90 c 128,-1,8
 268 -67 268 -67 268 -35 c 2,9,-1
 268 431 l 1,0,-1
773 470 m 1,10,-1
 229 470 l 1,11,-1
 229 548 l 1,12,-1
 365 548 l 1,13,-1
 404 587 l 1,14,-1
 598 587 l 1,15,-1
 637 548 l 1,16,-1
 773 548 l 1,17,-1
 773 470 l 1,10,-1
EndSplineSet
Validated: 1
EndChar

StartChar: guilsinglright
Encoding: 8250 8250 115
Width: 1000
GlyphClass: 2
Flags: W
LayerCount: 2
Fore
SplineSet
781 556 m 2,0,-1
 806 529 l 2,1,2
 823 511 823 511 823 487 c 128,-1,3
 823 463 823 463 805 448 c 2,4,-1
 544 238 l 1,5,-1
 608 169 l 2,6,7
 626 151 626 151 626 125 c 2,8,9
 626 125 626 125 625.5 111.5 c 128,-1,10
 625 98 625 98 606 80 c 2,11,-1
 581 56 l 1,12,-1
 298 351 l 1,13,-1
 323 375 l 2,14,15
 341 393 341 393 366 393 c 0,16,17
 367 393 367 393 380 392.5 c 128,-1,18
 393 392 393 392 412 373 c 2,19,-1
 468 317 l 1,20,-1
 700 558 l 2,21,22
 716 574 716 574 739 574 c 0,23,24
 740 574 740 574 752 573.5 c 128,-1,25
 764 573 764 573 781 556 c 2,0,-1
281 332 m 1,26,-1
 561 40 l 2,27,28
 559 38 559 38 531 -6 c 128,-1,29
 503 -50 503 -50 473.5 -75.5 c 128,-1,30
 444 -101 444 -101 401 -113 c 1,31,32
 391 -103 391 -103 348.5 -64.5 c 128,-1,33
 306 -26 306 -26 291.5 -12 c 128,-1,34
 277 2 277 2 242.5 36 c 128,-1,35
 208 70 208 70 189 91.5 c 128,-1,36
 170 113 170 113 144.5 144 c 128,-1,37
 119 175 119 175 99 204 c 1,38,39
 115 213 115 213 146 227 c 128,-1,40
 177 241 177 241 196 251 c 128,-1,41
 215 261 215 261 239.5 282.5 c 128,-1,42
 264 304 264 304 281 332 c 1,26,-1
EndSplineSet
Validated: 1
EndChar

StartChar: fraction
Encoding: 8260 8260 116
Width: 1000
GlyphClass: 2
Flags: W
LayerCount: 2
Fore
SplineSet
127 594 m 1,0,-1
 898 594 l 1,1,-1
 898 482 l 1,2,-1
 127 482 l 1,3,-1
 127 594 l 1,0,-1
127 308 m 1,4,-1
 898 308 l 1,5,-1
 898 192 l 1,6,-1
 127 192 l 1,7,-1
 127 308 l 1,4,-1
127 -94 m 1,8,-1
 127 18 l 1,9,-1
 898 18 l 1,10,-1
 898 -94 l 1,11,-1
 127 -94 l 1,8,-1
EndSplineSet
Validated: 1
EndChar

StartChar: Euro
Encoding: 8364 8364 117
Width: 1000
GlyphClass: 2
Flags: W
LayerCount: 2
Fore
SplineSet
875 196 m 1,0,-1
 553 196 l 1,1,-1
 553 -125 l 1,2,-1
 431 -125 l 1,3,-1
 431 196 l 1,4,-1
 125 196 l 1,5,-1
 125 303 l 1,6,-1
 431 303 l 1,7,-1
 431 625 l 1,8,-1
 553 625 l 1,9,-1
 553 303 l 1,10,-1
 875 303 l 1,11,-1
 875 196 l 1,0,-1
EndSplineSet
Validated: 1
EndChar

StartChar: trademark
Encoding: 8482 8482 118
Width: 1000
GlyphClass: 2
Flags: W
LayerCount: 2
Fore
SplineSet
176 650 m 1,0,-1
 251 520 l 1,1,-1
 194 520 l 1,2,-1
 194 -31 l 1,3,-1
 323 248 l 1,4,-1
 442 116 l 1,5,-1
 552 339 l 1,6,-1
 648 393 l 1,7,-1
 633 420 l 1,8,-1
 716 420 l 1,9,-1
 674 348 l 1,10,-1
 658 376 l 1,11,-1
 568 324 l 1,12,-1
 447 80 l 1,13,-1
 329 211 l 1,14,-1
 206 -56 l 1,15,-1
 770 -56 l 1,16,-1
 770 1 l 1,17,-1
 900 -74 l 1,18,-1
 770 -150 l 1,19,-1
 770 -93 l 1,20,-1
 157 -93 l 1,21,-1
 157 520 l 1,22,-1
 100 520 l 1,23,-1
 176 650 l 1,0,-1
EndSplineSet
Validated: 1
EndChar

StartChar: minus
Encoding: 8722 8722 119
Width: 1000
GlyphClass: 2
Flags: W
LayerCount: 2
Fore
SplineSet
900 250 m 1,0,-1
 830 180 l 1,1,-1
 550 459 l 1,2,-1
 550 -150 l 1,3,-1
 450 -150 l 1,4,-1
 450 459 l 1,5,-1
 171 179 l 1,6,-1
 100 250 l 1,7,-1
 500 650 l 1,8,-1
 900 250 l 1,0,-1
EndSplineSet
Validated: 1
EndChar

StartChar: fi
Encoding: 64257 64257 120
Width: 1000
GlyphClass: 3
Flags: W
LayerCount: 2
Fore
SplineSet
783 -32 m 1,0,1
 728 -87 728 -87 655.5 -118.5 c 128,-1,2
 583 -150 583 -150 499 -150 c 0,3,4
 416 -150 416 -150 343.5 -118.5 c 128,-1,5
 271 -87 271 -87 217 -33 c 128,-1,6
 163 21 163 21 131.5 94 c 128,-1,7
 100 167 100 167 100 250 c 256,8,9
 100 333 100 333 131.5 406 c 128,-1,10
 163 479 163 479 217 533 c 128,-1,11
 271 587 271 587 343.5 618.5 c 128,-1,12
 416 650 416 650 499 650 c 0,13,14
 569 650 569 650 632 627.5 c 128,-1,15
 695 605 695 605 746 565 c 128,-1,16
 797 525 797 525 833.5 470 c 128,-1,17
 870 415 870 415 887 350 c 1,18,-1
 783 350 l 1,19,20
 767 394 767 394 739 430.5 c 128,-1,21
 711 467 711 467 674 493.5 c 128,-1,22
 637 520 637 520 592.5 535 c 128,-1,23
 548 550 548 550 499 550 c 0,24,25
 437 550 437 550 382.5 526.5 c 128,-1,26
 328 503 328 503 287 462.5 c 128,-1,27
 246 422 246 422 222.5 367 c 128,-1,28
 199 312 199 312 199 250 c 256,29,30
 199 188 199 188 222.5 133 c 128,-1,31
 246 78 246 78 287 37.5 c 128,-1,32
 328 -3 328 -3 382.5 -26.5 c 128,-1,33
 437 -50 437 -50 499 -50 c 0,34,35
 562 -50 562 -50 616 -26.5 c 128,-1,36
 670 -3 670 -3 711 39 c 1,37,-1
 550 200 l 1,38,-1
 900 200 l 1,39,-1
 900 -150 l 1,40,-1
 783 -32 l 1,0,1
EndSplineSet
Validated: 1
EndChar

StartChar: fl
Encoding: 64258 64258 121
Width: 1000
GlyphClass: 3
Flags: W
LayerCount: 2
Fore
SplineSet
804 289 m 1,0,1
 807 270 807 270 807 250 c 0,2,3
 807 231 807 231 804 211 c 1,4,-1
 890 144 l 2,5,6
 896 140 896 140 897.5 133 c 128,-1,7
 899 126 899 126 895 119 c 2,8,-1
 813 -20 l 2,9,10
 809 -26 809 -26 802.5 -28.5 c 128,-1,11
 796 -31 796 -31 789 -28 c 2,12,-1
 687 12 l 1,13,14
 656 -11 656 -11 618 -28 c 1,15,-1
 602 -133 l 2,16,17
 599 -150 599 -150 582 -150 c 2,18,-1
 418 -150 l 2,19,20
 410 -150 410 -150 404.5 -145.5 c 128,-1,21
 399 -141 399 -141 399 -133 c 2,22,-1
 383 -28 l 1,23,24
 345 -11 345 -11 313 12 c 1,25,-1
 212 -28 l 2,26,27
 196 -34 196 -34 187 -20 c 2,28,-1
 105 120 l 2,29,30
 101 126 101 126 103 132.5 c 128,-1,31
 105 139 105 139 110 144 c 2,32,-1
 197 211 l 1,33,34
 195 221 195 221 194 230.5 c 128,-1,35
 193 240 193 240 193 250 c 0,36,37
 193 261 193 261 194 270 c 128,-1,38
 195 279 195 279 197 289 c 1,39,-1
 110 356 l 2,40,41
 105 361 105 361 103 367.5 c 128,-1,42
 101 374 101 374 105 381 c 2,43,-1
 187 520 l 2,44,45
 191 526 191 526 198 528.5 c 128,-1,46
 205 531 205 531 212 528 c 2,47,-1
 313 488 l 1,48,49
 345 511 345 511 383 528 c 1,50,-1
 399 633 l 2,51,52
 399 641 399 641 404.5 645.5 c 128,-1,53
 410 650 410 650 418 650 c 2,54,-1
 582 650 l 2,55,56
 599 650 599 650 602 633 c 2,57,-1
 618 528 l 1,58,59
 656 511 656 511 687 488 c 1,60,-1
 789 528 l 2,61,62
 796 531 796 531 802.5 528.5 c 128,-1,63
 809 526 809 526 813 520 c 2,64,-1
 895 381 l 2,65,66
 899 374 899 374 897.5 367 c 128,-1,67
 896 360 896 360 890 356 c 2,68,-1
 804 289 l 1,0,1
500 390 m 256,69,70
 470 390 470 390 444 379 c 128,-1,71
 418 368 418 368 398.5 349 c 128,-1,72
 379 330 379 330 368 304.5 c 128,-1,73
 357 279 357 279 357 250 c 256,74,75
 357 221 357 221 368 195.5 c 128,-1,76
 379 170 379 170 398.5 151 c 128,-1,77
 418 132 418 132 444 121 c 128,-1,78
 470 110 470 110 500 110 c 256,79,80
 530 110 530 110 556 121 c 128,-1,81
 582 132 582 132 601.5 151 c 128,-1,82
 621 170 621 170 632 195.5 c 128,-1,83
 643 221 643 221 643 250 c 256,84,85
 643 279 643 279 632 304.5 c 128,-1,86
 621 330 621 330 601.5 349 c 128,-1,87
 582 368 582 368 556 379 c 128,-1,88
 530 390 530 390 500 390 c 256,69,70
EndSplineSet
Validated: 1
EndChar

StartChar: J.1
Encoding: 65537 -1 122
Width: 1000
GlyphClass: 2
Flags: W
LayerCount: 2
Fore
SplineSet
250 400 m 1,0,-1
 750 400 l 1,1,-1
 500 128 l 1,2,-1
 250 400 l 1,0,-1
EndSplineSet
Validated: 1
EndChar

StartChar: a
Encoding: 65538 -1 123
Width: 1000
GlyphClass: 2
Flags: W
LayerCount: 2
Fore
SplineSet
268 431 m 1,0,-1
 735 431 l 1,1,-1
 735 -35 l 2,2,3
 735 -67 735 -67 712 -90 c 128,-1,4
 689 -113 689 -113 657 -113 c 2,5,-1
 346 -113 l 2,6,7
 314 -113 314 -113 291 -90 c 128,-1,8
 268 -67 268 -67 268 -35 c 2,9,-1
 268 431 l 1,0,-1
773 470 m 1,10,-1
 229 470 l 1,11,-1
 229 548 l 1,12,-1
 365 548 l 1,13,-1
 404 587 l 1,14,-1
 598 587 l 1,15,-1
 637 548 l 1,16,-1
 773 548 l 1,17,-1
 773 470 l 1,10,-1
EndSplineSet
Validated: 1
EndChar

StartChar: b
Encoding: 65539 -1 124
Width: 1000
GlyphClass: 2
Flags: W
LayerCount: 2
Fore
SplineSet
781 556 m 2,0,-1
 806 529 l 2,1,2
 823 511 823 511 823 487 c 128,-1,3
 823 463 823 463 805 448 c 2,4,-1
 544 238 l 1,5,-1
 608 169 l 2,6,7
 626 151 626 151 626 125 c 2,8,9
 626 125 626 125 625.5 111.5 c 128,-1,10
 625 98 625 98 606 80 c 2,11,-1
 581 56 l 1,12,-1
 298 351 l 1,13,-1
 323 375 l 2,14,15
 341 393 341 393 366 393 c 0,16,17
 367 393 367 393 380 392.5 c 128,-1,18
 393 392 393 392 412 373 c 2,19,-1
 468 317 l 1,20,-1
 700 558 l 2,21,22
 716 574 716 574 739 574 c 0,23,24
 740 574 740 574 752 573.5 c 128,-1,25
 764 573 764 573 781 556 c 2,0,-1
281 332 m 1,26,-1
 561 40 l 2,27,28
 559 38 559 38 531 -6 c 128,-1,29
 503 -50 503 -50 473.5 -75.5 c 128,-1,30
 444 -101 444 -101 401 -113 c 1,31,32
 391 -103 391 -103 348.5 -64.5 c 128,-1,33
 306 -26 306 -26 291.5 -12 c 128,-1,34
 277 2 277 2 242.5 36 c 128,-1,35
 208 70 208 70 189 91.5 c 128,-1,36
 170 113 170 113 144.5 144 c 128,-1,37
 119 175 119 175 99 204 c 1,38,39
 115 213 115 213 146 227 c 128,-1,40
 177 241 177 241 196 251 c 128,-1,41
 215 261 215 261 239.5 282.5 c 128,-1,42
 264 304 264 304 281 332 c 1,26,-1
EndSplineSet
Validated: 1
EndChar

StartChar: c
Encoding: 65540 -1 125
Width: 1000
GlyphClass: 2
Flags: W
LayerCount: 2
Fore
SplineSet
875 196 m 1,0,-1
 553 196 l 1,1,-1
 553 -125 l 1,2,-1
 431 -125 l 1,3,-1
 431 196 l 1,4,-1
 125 196 l 1,5,-1
 125 303 l 1,6,-1
 431 303 l 1,7,-1
 431 625 l 1,8,-1
 553 625 l 1,9,-1
 553 303 l 1,10,-1
 875 303 l 1,11,-1
 875 196 l 1,0,-1
EndSplineSet
Validated: 1
EndChar

StartChar: f
Encoding: 65541 -1 126
Width: 1000
GlyphClass: 2
Flags: W
LayerCount: 2
Fore
SplineSet
900 250 m 1,0,-1
 830 180 l 1,1,-1
 550 459 l 1,2,-1
 550 -150 l 1,3,-1
 450 -150 l 1,4,-1
 450 459 l 1,5,-1
 171 179 l 1,6,-1
 100 250 l 1,7,-1
 500 650 l 1,8,-1
 900 250 l 1,0,-1
EndSplineSet
Validated: 1
EndChar

StartChar: s
Encoding: 65542 -1 127
Width: 1000
GlyphClass: 2
Flags: W
LayerCount: 2
Fore
SplineSet
100 277 m 1,0,1
 150 314 150 314 203 361.5 c 128,-1,2
 256 409 256 409 308.5 462.5 c 128,-1,3
 361 516 361 516 411 574 c 128,-1,4
 461 632 461 632 506 690 c 1,5,6
 571 608 571 608 619.5 549.5 c 128,-1,7
 668 491 668 491 705 450.5 c 128,-1,8
 742 410 742 410 769 383.5 c 128,-1,9
 796 357 796 357 818.5 338.5 c 128,-1,10
 841 320 841 320 860.5 306 c 128,-1,11
 880 292 880 292 900 277 c 1,12,-1
 852 227 l 1,13,14
 846 233 846 233 832 247 c 128,-1,15
 818 261 818 261 802.5 277 c 128,-1,16
 787 293 787 293 773 307 c 128,-1,17
 759 321 759 321 753 327 c 1,18,19
 738 278 738 278 735.5 218 c 128,-1,20
 733 158 733 158 737.5 98.5 c 128,-1,21
 742 39 742 39 748.5 -15.5 c 128,-1,22
 755 -70 755 -70 758 -110 c 1,23,-1
 591 -110 l 1,24,-1
 588 207 l 1,25,26
 563 209 563 209 532 207 c 0,27,28
 515 207 515 207 498 207 c 2,29,-1
 410 207 l 1,30,-1
 410 -110 l 1,31,-1
 243 -110 l 1,32,33
 245 -70 245 -70 252 -15.5 c 128,-1,34
 259 39 259 39 263 98.5 c 128,-1,35
 267 158 267 158 265 218 c 128,-1,36
 263 278 263 278 248 327 c 1,37,38
 242 321 242 321 228 307 c 128,-1,39
 214 293 214 293 198 277 c 128,-1,40
 182 261 182 261 168 247 c 128,-1,41
 154 233 154 233 148 227 c 1,42,-1
 100 277 l 1,0,1
EndSplineSet
Validated: 33
EndChar
